<?xml version="1.0" standalone="no"?>
<!DOCTYPE svg PUBLIC "-//W3C//DTD SVG 20010904//EN"
 "http://www.w3.org/TR/2001/REC-SVG-20010904/DTD/svg10.dtd">
<svg version="1.0" xmlns="http://www.w3.org/2000/svg"
 width="64.000000pt" height="64.000000pt" viewBox="0 0 64.000000 64.000000"
 preserveAspectRatio="xMidYMid meet">

<g transform="translate(0.000000,64.000000) scale(0.100000,-0.100000)"
fill="#000000" stroke="none">
<path d="M226 526 c-89 -54 -112 -161 -55 -252 48 -74 129 -164 149 -164 20 0
101 90 149 164 80 127 -1 276 -150 276 -39 0 -65 -7 -93 -24z m172 -26 c69
-42 90 -125 52 -200 -11 -21 -45 -65 -75 -97 l-55 -58 -55 58 c-94 99 -117
175 -75 245 42 69 139 94 208 52z"/>
<path d="M262 437 c-50 -53 -13 -137 59 -137 47 0 79 34 79 81 0 71 -90 107
-138 56z m96 -19 c7 -7 12 -24 12 -38 0 -14 -5 -31 -12 -38 -7 -7 -24 -12 -38
-12 -14 0 -31 5 -38 12 -15 15 -15 61 0 76 7 7 24 12 38 12 14 0 31 -5 38 -12z"/>
<path d="M189 162 c-25 -13 -34 -24 -34 -42 0 -41 52 -60 165 -60 107 0 163
19 168 57 4 25 -31 53 -65 53 -33 0 -28 -19 7 -31 38 -14 38 -24 -1 -38 -65
-22 -249 -8 -249 19 0 4 14 13 30 19 29 10 38 25 22 35 -5 3 -24 -3 -43 -12z"/>
</g>
</svg>
