<?xml version="1.0" standalone="no"?>
<!DOCTYPE svg PUBLIC "-//W3C//DTD SVG 20010904//EN"
 "http://www.w3.org/TR/2001/REC-SVG-20010904/DTD/svg10.dtd">
<svg version="1.0" xmlns="http://www.w3.org/2000/svg"
 width="48.000000pt" height="48.000000pt" viewBox="0 0 48.000000 48.000000"
 preserveAspectRatio="xMidYMid meet">

<g transform="translate(0.000000,48.000000) scale(0.100000,-0.100000)"
fill="#000000" stroke="none">
<path d="M20 467 c0 -44 67 -87 135 -87 38 0 45 -3 45 -20 0 -11 -4 -20 -10
-20 -5 0 -10 -9 -10 -20 0 -17 -7 -20 -40 -20 -25 0 -40 -5 -40 -12 0 -7 -7
-69 -15 -138 -8 -69 -15 -131 -15 -137 0 -10 41 -13 170 -13 129 0 170 3 170
13 0 6 -7 68 -15 137 -8 69 -15 131 -15 138 0 7 -15 12 -40 12 -33 0 -40 3
-40 20 0 11 -4 20 -10 20 -5 0 -10 9 -10 20 0 17 7 20 45 20 52 0 96 19 119
52 33 47 31 48 -204 48 -172 0 -220 -3 -220 -13z m410 -16 c0 -5 -12 -19 -26
-30 -24 -19 -40 -21 -164 -21 -124 0 -140 2 -164 21 -14 11 -26 25 -26 30 0 5
80 9 190 9 110 0 190 -4 190 -9z m-170 -91 c0 -13 -7 -20 -20 -20 -13 0 -20 7
-20 20 0 13 7 20 20 20 13 0 20 -7 20 -20z m20 -50 c0 -5 -18 -10 -40 -10 -22
0 -40 5 -40 10 0 6 18 10 40 10 22 0 40 -4 40 -10z m84 -67 c3 -21 8 -63 11
-93 3 -30 8 -72 11 -92 l6 -38 -152 0 -152 0 6 38 c3 20 8 62 11 92 3 30 8 72
11 93 l6 37 118 0 118 0 6 -37z"/>
<path d="M191 236 c-87 -48 -50 -186 49 -186 51 0 100 49 100 99 0 75 -83 124
-149 87z m42 -18 c4 -10 8 -10 15 1 11 16 32 6 32 -15 0 -8 6 -14 14 -14 21 0
31 -21 15 -31 -12 -8 -12 -10 0 -18 16 -10 6 -31 -15 -31 -8 0 -14 -6 -14 -14
0 -21 -21 -31 -31 -15 -8 12 -10 12 -18 0 -10 -16 -31 -6 -31 15 0 8 -6 14
-14 14 -21 0 -31 21 -15 31 12 8 12 10 0 18 -15 10 -7 31 13 31 8 0 16 9 19
20 6 22 23 27 30 8z"/>
<path d="M227 173 c-6 -31 7 -53 22 -38 11 11 3 65 -9 65 -4 0 -10 -12 -13
-27z"/>
</g>
</svg>
