<?xml version="1.0" standalone="no"?>
<!DOCTYPE svg PUBLIC "-//W3C//DTD SVG 20010904//EN"
 "http://www.w3.org/TR/2001/REC-SVG-20010904/DTD/svg10.dtd">
<svg version="1.0" xmlns="http://www.w3.org/2000/svg"
 width="64.000000pt" height="64.000000pt" viewBox="0 0 64.000000 64.000000"
 preserveAspectRatio="xMidYMid meet">

<g transform="translate(0.000000,64.000000) scale(0.100000,-0.100000)"
fill="#000000" stroke="none">
<path d="M47 590 c-63 -50 -27 -160 52 -160 39 0 51 -26 51 -110 0 -57 -7
-102 -26 -160 -42 -135 -61 -125 230 -128 247 -2 276 1 276 32 -1 37 -17 41
-187 46 l-168 5 -3 105 c-4 125 2 159 29 188 23 26 79 31 79 7 0 -8 11 -17 25
-21 14 -3 25 -12 25 -20 0 -10 -16 -14 -61 -14 l-61 0 3 -86 c4 -84 5 -86 41
-120 30 -27 46 -34 78 -34 93 0 130 47 130 164 l0 75 -57 3 c-34 2 -58 8 -61
16 -2 6 4 12 12 12 9 0 24 9 33 20 10 11 30 20 46 20 18 0 39 11 58 29 38 39
40 88 3 125 l-27 26 -247 0 c-233 0 -249 -1 -273 -20z m517 -1 c36 -17 54 -65
35 -98 -27 -48 -46 -51 -297 -49 -232 3 -234 3 -253 27 -26 32 -24 77 6 106
l24 25 230 0 c150 0 239 -4 255 -11z m-289 -189 c-8 -16 -15 -45 -15 -64 0
-34 -1 -35 -35 -29 -21 3 -41 1 -50 -7 -13 -11 -15 -5 -15 43 0 30 -3 62 -6
71 -5 14 4 16 65 16 l72 0 -16 -30z m205 20 c0 -5 -20 -10 -45 -10 -25 0 -45
5 -45 10 0 6 20 10 45 10 25 0 45 -4 45 -10z m70 -80 c0 -6 -45 -10 -116 -10
-74 0 -113 4 -109 10 4 6 53 10 116 10 66 0 109 -4 109 -10z m-125 -29 c3 -6
-9 -30 -27 -55 -28 -40 -30 -49 -20 -71 18 -38 60 -51 91 -27 38 28 38 63 0
107 -39 44 -30 58 32 53 44 -3 44 -3 47 -45 4 -59 -20 -109 -61 -129 -74 -35
-149 12 -163 101 -9 65 -2 75 50 75 25 0 47 -4 51 -9z m-181 -33 c11 -15 16
-46 16 -95 0 -61 3 -74 19 -83 11 -6 87 -10 176 -10 l156 0 -3 -22 -3 -23
-236 -3 c-187 -2 -239 0 -247 11 -9 10 -3 40 23 122 18 59 40 112 47 116 21
14 36 10 52 -13z m201 -85 l-7 -28 -9 23 c-5 13 -6 36 -2 50 6 26 6 26 16 5 5
-12 6 -34 2 -50z m35 18 c0 -16 -6 -33 -13 -39 -9 -8 -11 -1 -9 34 4 47 22 51
22 5z m-67 -14 c5 -33 4 -37 -8 -27 -15 13 -20 51 -8 63 9 9 9 8 16 -36z"/>
<path d="M191 277 c-17 -21 -3 -47 26 -47 21 0 24 4 21 27 -3 31 -29 41 -47
20z m34 -26 c-3 -6 -11 -11 -16 -11 -5 0 -4 6 3 14 14 16 24 13 13 -3z"/>
</g>
</svg>
