<?xml version="1.0" standalone="yes"?>
<svg xmlns="http://www.w3.org/2000/svg" width="821" height="455">
<path style="fill:#fff6f4; stroke:none;" d="M0 0L0 455L821 455L821 0L0 0z"/>
<path style="fill:#fdb5b9; stroke:none;" d="M81 11L63 28C74.9388 37.0965 91.4464 44.4124 98.9452 58C103.358 65.9955 98.4145 79.4227 104.318 85.7222C114.375 96.4547 132.024 89.4594 136 106L137 106C140.44 101.347 144.601 98.8571 146.254 92.9992C154.568 63.5376 121.094 50.5231 100 41.4205C93.1709 38.4737 83.9909 34.3197 79.7423 27.9105C75.8018 21.9661 81.0812 16.8919 81 11z"/>
<path style="fill:#d1779a; stroke:none;" d="M63 28L64 29L63 28z"/>
<path style="fill:#fdb5b9; stroke:none;" d="M62 29C53.0339 40.6663 44.5573 58.97 49 74L50 74C56.2524 64.551 70.4254 40.1234 62 29z"/>
<path style="fill:#e1ab82; stroke:none;" d="M63 29L64 30L63 29z"/>
<path style="fill:#b1356b; stroke:none;" d="M64 29C64 38.6231 63.1933 47.9718 59.5471 57C49.6741 81.4458 22.719 105.568 40.233 134C42.7638 138.108 45.7762 142.341 49.2894 145.671C73.4773 168.597 112.385 140.555 139 137.286C153.856 135.462 166.958 141.645 176.384 153.004C180.157 157.55 182.868 164.581 187.39 168.272C192.143 172.154 200.465 172.781 206 175.862C222.174 184.865 235.448 200.995 237 220L238 220C238 198.586 228.426 177.073 208 167.865C202.707 165.479 196.823 162.754 191 164C191.106 151.202 193.58 139.362 188.546 127C180.699 107.727 152.18 91.8482 135 107C134.225 90.3135 113.971 95.5886 104.279 85.7253C98.0651 79.4025 103.144 66.2898 98.8619 58C91.9522 44.6227 75.9179 37.2964 64 29z"/>
<path style="fill:#e1ab82; stroke:none;" d="M65 29L66 30L65 29M66 30L67 31L66 30z"/>
<path style="fill:#d1779a; stroke:none;" d="M67 31L68 32L67 31M68 32L69 33L68 32M69 33L70 34L69 33M70 34L71 35L70 34z"/>
<path style="fill:#e1ab82; stroke:none;" d="M63 38L64 39L63 38z"/>
<path style="fill:#d1779a; stroke:none;" d="M75 38L76 39L75 38M63 39L63 42L64 42L63 39M78 39L79 40L78 39M80 40L81 41L80 40M82 41L83 42L82 41M84 42L85 43L84 42z"/>
<path style="fill:#e1ab82; stroke:none;" d="M86 43L87 44L86 43z"/>
<path style="fill:#d1779a; stroke:none;" d="M87 44L88 45L87 44M88 45L89 46L88 45M62.3333 46.6667L62.6667 47.3333L62.3333 46.6667M61.3333 50.6667L61.6667 51.3333L61.3333 50.6667M93 50L94 51L93 50M94 51L95 52L94 51M95 52L96 53L95 52z"/>
<path style="fill:#e1ab82; stroke:none;" d="M60 53L61 54L60 53M96 53L97 54L96 53z"/>
<path style="fill:#d1779a; stroke:none;" d="M60 54L61 55L60 54M97 55L98 56L97 55M59.3333 56.6667L59.6667 57.3333L59.3333 56.6667M98 57L99 58L98 57z"/>
<path style="fill:#e1ab82; stroke:none;" d="M58 58L59 59L58 58M99 58L100 59L99 58z"/>
<path style="fill:#d1779a; stroke:none;" d="M58 59L59 60L58 59M100.333 60.6667L100.667 61.3333L100.333 60.6667M57 61L58 62L57 61M56 63L57 64L56 63M101.333 64.6667L101.667 65.3333L101.333 64.6667M55 65L56 66L55 65z"/>
<path style="fill:#e1ab82; stroke:none;" d="M54 66L55 67L54 66z"/>
<path style="fill:#d1779a; stroke:none;" d="M54 67L55 68L54 67M53 68L54 69L53 68M52 70L53 71L52 70z"/>
<path style="fill:#e1ab82; stroke:none;" d="M51 71L52 72L51 71z"/>
<path style="fill:#d1779a; stroke:none;" d="M50 73L51 74L50 73M49 74L50 75L49 74z"/>
<path style="fill:#fdb5b9; stroke:none;" d="M48 75L49 76L48 75z"/>
<path style="fill:#d1779a; stroke:none;" d="M48 76L49 77L48 76M101 76L101 82L102 82L101 76M47 77L48 78L47 77z"/>
<path style="fill:#e1ab82; stroke:none;" d="M46 78L47 79L46 78z"/>
<path style="fill:#d1779a; stroke:none;" d="M45 80L46 81L45 80z"/>
<path style="fill:#e1ab82; stroke:none;" d="M44 81L45 82L44 81z"/>
<path style="fill:#d1779a; stroke:none;" d="M44 82L45 83L44 82M43 83L44 84L43 83z"/>
<path style="fill:#fdb5b9; stroke:none;" d="M42 84L43 85L42 84z"/>
<path style="fill:#d1779a; stroke:none;" d="M102 84L103 85L102 84M42 85L43 86L42 85z"/>
<path style="fill:#e1ab82; stroke:none;" d="M103 85L104 86L103 85z"/>
<path style="fill:#fdb5b9; stroke:none;" d="M41 86L42 87L41 86z"/>
<path style="fill:#e1ab82; stroke:none;" d="M104 86L105 87L104 86z"/>
<path style="fill:#d1779a; stroke:none;" d="M41 87L42 88L41 87M105 87L106 88L105 87z"/>
<path style="fill:#fdb5b9; stroke:none;" d="M40 88L41 89L40 88z"/>
<path style="fill:#d1779a; stroke:none;" d="M108 88L109 89L108 88M40 89L41 90L40 89M110 89L111 90L110 89z"/>
<path style="fill:#e1ab82; stroke:none;" d="M111 89L112 90L111 89z"/>
<path style="fill:#fdb5b9; stroke:none;" d="M39 90L40 91L39 90z"/>
<path style="fill:#d1779a; stroke:none;" d="M112 90L113 91L112 90M39 91L40 92L39 91M114 91L115 92L114 91M115 92L116 93L115 92z"/>
<path style="fill:#e1ab82; stroke:none;" d="M38 93L39 94L38 93M116 93L117 94L116 93M121.667 93.3333L122.333 93.6667L121.667 93.3333z"/>
<path style="fill:#d1779a; stroke:none;" d="M123 93L124 94L123 93M38 94L39 95L38 94M126.667 94.3333L127.333 94.6667L126.667 94.3333z"/>
<path style="fill:#e1ab82; stroke:none;" d="M128 94L129 95L128 94z"/>
<path style="fill:#d1779a; stroke:none;" d="M129 95L130 96L129 95z"/>
<path style="fill:#e1ab82; stroke:none;" d="M130 95L131 96L130 95M37 96L38 97L37 96z"/>
<path style="fill:#d1779a; stroke:none;" d="M131 96L132 97L131 96M37 97L38 98L37 97M132 97L133 98L132 97M133 98L134 99L133 98z"/>
<path style="fill:#fdb5b9; stroke:none;" d="M36 99L37 100L36 99M145 99L145 100L148 100L145 99z"/>
<path style="fill:#e1ab82; stroke:none;" d="M36 100L37 101L36 100z"/>
<path style="fill:#d1779a; stroke:none;" d="M134.333 100.667L134.667 101.333L134.333 100.667M142.667 100.333L143.333 100.667L142.667 100.333M150 100L150 101L153 101L150 100z"/>
<path style="fill:#fdb5b9; stroke:none;" d="M153.667 100.333L154.333 100.667L153.667 100.333z"/>
<path style="fill:#d1779a; stroke:none;" d="M36 101L37 102L36 101M140 101L141 102L140 101M156 101L157 102L156 101z"/>
<path style="fill:#e1ab82; stroke:none;" d="M157 101L158 102L157 101z"/>
<path style="fill:#fdb5b9; stroke:none;" d="M158 101L159 102L158 101z"/>
<path style="fill:#d1779a; stroke:none;" d="M159.667 102.333L160.333 102.667L159.667 102.333z"/>
<path style="fill:#fdb5b9; stroke:none;" d="M161 102L162 103L161 102M35 103L36 104L35 103z"/>
<path style="fill:#e1ab82; stroke:none;" d="M135 103L136 104L135 103z"/>
<path style="fill:#d1779a; stroke:none;" d="M138 103L139 104L138 103M162.667 103.333L163.333 103.667L162.667 103.333z"/>
<path style="fill:#e1ab82; stroke:none;" d="M35 104L36 105L35 104z"/>
<path style="fill:#d1779a; stroke:none;" d="M135 104L137 107L135 104M137 104L138 105L137 104M165 104L166 105L165 104z"/>
<path style="fill:#fdb5b9; stroke:none;" d="M166 104L167 105L166 104z"/>
<path style="fill:#d1779a; stroke:none;" d="M35 105L35 108L36 108L35 105M167 105L168 106L167 105z"/>
<path style="fill:#fdb5b9; stroke:none;" d="M168 105L169 106L168 105z"/>
<path style="fill:#d1779a; stroke:none;" d="M169 106L170 107L169 106z"/>
<path style="fill:#fdb5b9; stroke:none;" d="M170 106L171 107L170 106z"/>
<path style="fill:#d1779a; stroke:none;" d="M171 107L172 108L171 107z"/>
<path style="fill:#fdb5b9; stroke:none;" d="M172 107L173 108L172 107z"/>
<path style="fill:#e1ab82; stroke:none;" d="M173 108L174 109L173 108z"/>
<path style="fill:#d1779a; stroke:none;" d="M174 109L175 110L174 109M175 110L176 111L175 110z"/>
<path style="fill:#fdb5b9; stroke:none;" d="M176 110L177 111L176 110z"/>
<path style="fill:#e1ab82; stroke:none;" d="M177 111L178 112L177 111M178 112L179 113L178 112z"/>
<path style="fill:#fdb5b9; stroke:none;" d="M34.3333 113.667L34.6667 114.333L34.3333 113.667z"/>
<path style="fill:#e1ab82; stroke:none;" d="M179 113L180 114L179 113z"/>
<path style="fill:#d1779a; stroke:none;" d="M180 114L181 115L180 114M181 115L182 116L181 115M182 116L183 117L182 116z"/>
<path style="fill:#e1ab82; stroke:none;" d="M183 117L184 118L183 117z"/>
<path style="fill:#fdb5b9; stroke:none;" d="M184 118L185 119L184 118z"/>
<path style="fill:#d1779a; stroke:none;" d="M184 119L185 120L184 119M35.3333 120.667L35.6667 121.333L35.3333 120.667M185 120L186 121L185 120z"/>
<path style="fill:#fdb5b9; stroke:none;" d="M186 121L187 122L186 121z"/>
<path style="fill:#e1ab82; stroke:none;" d="M35 122L36 123L35 122z"/>
<path style="fill:#d1779a; stroke:none;" d="M186 122L187 123L186 122z"/>
<path style="fill:#fdb5b9; stroke:none;" d="M35 123L36 124L35 123M187 123L188 124L187 123z"/>
<path style="fill:#d1779a; stroke:none;" d="M187 124L188 125L187 124M36.3333 125.667L36.6667 126.333L36.3333 125.667z"/>
<path style="fill:#fdb5b9; stroke:none;" d="M188 125L189 126L188 125z"/>
<path style="fill:#d1779a; stroke:none;" d="M188 126L189 127L188 126z"/>
<path style="fill:#fdb5b9; stroke:none;" d="M345 126.439C337.647 127.597 331.99 130.388 329.789 138C324.334 156.867 329 183.352 329 203C329 210.955 327.643 220.857 332.228 227.895C335.236 232.514 340.818 233.85 346 233.985C358.876 234.322 373.249 235.522 386 233.7C423.438 228.351 435.135 176.459 416.11 148.001C401.494 126.139 369.127 122.64 345 126.439M551 126.468C542.451 128.07 537.78 134.509 537.093 143C535.87 158.135 537 173.813 537 189C537 200.09 535.827 212.179 538.765 223C541.291 232.306 550.139 235.27 559 233.671C570.053 231.675 571.985 220.471 572 211L572 159C572 151.315 573.667 141.273 570.656 134.04C567.694 126.926 557.837 125.186 551 126.468M36 127L37 128L36 127M189 128L190 129L189 128z"/>
<path style="fill:#d1779a; stroke:none;" d="M37 129L38 130L37 129M189 129L190 130L189 129z"/>
<path style="fill:#fdb5b9; stroke:none;" d="M37 130C29.8614 142.277 25.1922 157.726 27.439 172C28.2987 177.461 34.9758 186.875 34.2492 191.576C33.3268 197.544 25.5398 204.722 23.3449 211C16.3315 231.061 16.4615 252.899 23 273L24 273C22.2307 259.299 19.6293 247.481 24.9267 234C27.216 228.174 31.1972 223.498 34 218C54.5221 261.109 98.8717 263.848 140 252.14C151.135 248.971 161.876 244.46 172 238.861C175.111 237.14 179.978 235.736 181.972 232.61C184.155 229.188 183.299 221.874 182.815 218C181.099 204.269 167.933 200.521 156 201.039C128.464 202.236 103.062 214.967 75 212.91C63.0819 212.036 55.5852 204.057 45 201.328C38.846 199.741 31.9409 208.094 30 213L29 213C29.6841 205.214 33.8386 199.621 39 194L39 193C28.0403 177.471 32.372 158.16 39 142L40 142C42.0454 188.915 96.7365 160.999 125 167.9C132.215 169.661 139.441 173.225 144.907 178.301C147.967 181.143 150.285 187.582 155.043 187.526C162.597 187.437 170.598 182.239 178 180.669C192.956 177.497 210.946 184.727 217.481 199C222.687 210.368 219.175 223.424 213.741 234C202.24 256.382 181.601 276.8 159 287.742C149.918 292.138 135.789 292.982 128.214 299.499C119.881 306.668 124.313 330.904 136.852 331.248C144.529 331.459 131.243 316.819 130 315C137.345 313.77 131.954 307.813 131 303C140.65 307.823 140.555 299.328 148.324 299.496C150.738 299.548 153.267 303.553 155 305L156 297L164 310L165 307L167 307C167.541 309.611 173.898 322.947 175.578 313.852C176.907 306.656 162.524 290.315 178 293L179 286L183 294C185.311 295.14 188.166 298.389 190.81 298.365C194.235 298.334 196.374 284.488 199.214 281.576C202.168 278.547 211.076 268.283 215 273L216 273C217.104 266.214 225.309 264.263 229.996 259.907C241.005 249.676 246.56 236.054 240 222L239 222L238 230L237 230C238.782 208.644 227.029 188.591 209 177.615C202.762 173.817 195.251 173.208 189.21 169.686C184.938 167.195 182.509 160.88 179.622 157C172.826 147.868 164.699 139.991 153 138.3C138.57 136.214 123.495 139.348 110 144.425C93.8206 150.512 75.222 159.562 58 151.367C47.8934 146.557 43.9652 137.988 37 130z"/>
<path style="fill:#d1779a; stroke:none;" d="M38 131L39 132L38 131z"/>
<path style="fill:#fdb5b9; stroke:none;" d="M190 131L191 132L190 131z"/>
<path style="fill:#d1779a; stroke:none;" d="M39 132L40 133L39 132M190 132L191 133L190 132z"/>
<path style="fill:#e1ab82; stroke:none;" d="M39 133L40 134L39 133z"/>
<path style="fill:#d1779a; stroke:none;" d="M40 134L41 135L40 134z"/>
<path style="fill:#fdb5b9; stroke:none;" d="M191 134L192 135L191 134z"/>
<path style="fill:#e1ab82; stroke:none;" d="M191 135L192 136L191 135z"/>
<path style="fill:#d1779a; stroke:none;" d="M41 136L42 137L41 136M191.333 136.667L191.667 137.333L191.333 136.667M42 137L43 138L42 137M137 137L137 138L140 138L137 137z"/>
<path style="fill:#e1ab82; stroke:none;" d="M140.667 137.333L141.333 137.667L140.667 137.333M143 137L143 138L146 138L143 137z"/>
<path style="fill:#d1779a; stroke:none;" d="M146 137L146 138L151 138L146 137M43 138L44 139L43 138M131 138L132 139L131 138z"/>
<path style="fill:#e1ab82; stroke:none;" d="M132 138L133 139L132 138M154 138L155 139L154 138z"/>
<path style="fill:#d1779a; stroke:none;" d="M155 138L156 139L155 138z"/>
<path style="fill:#e1ab82; stroke:none;" d="M43 139L44 140L43 139z"/>
<path style="fill:#d1779a; stroke:none;" d="M126 139L127 140L126 139M158.667 139.333L159.333 139.667L158.667 139.333M44 140L45 141L44 140M122 140L123 141L122 140M161 140L162 141L161 140z"/>
<path style="fill:#fdb5b9; stroke:none;" d="M192.333 140.667L192.667 141.333L192.333 140.667z"/>
<path style="fill:#d1779a; stroke:none;" d="M45 141L46 142L45 141M118 141L119 142L118 141z"/>
<path style="fill:#e1ab82; stroke:none;" d="M119 141L120 142L119 141z"/>
<path style="fill:#d1779a; stroke:none;" d="M163 141L164 142L163 141M39 142L40 143L39 142M46 142L47 143L46 142M115 142L116 143L115 142M165 142L166 143L165 142z"/>
<path style="fill:#e1ab82; stroke:none;" d="M192 142L192 152L193 152L192 142M38 143L39 144L38 143z"/>
<path style="fill:#b1356b; stroke:none;" d="M39 143C33.4276 153.575 31.5792 166.184 33.439 178C34.1878 182.757 37.6438 188.324 37.4583 193C37.2218 198.963 30.3528 205.532 29 212L30 212C32.7987 208.03 37.6284 201.634 43 201.364C47.7124 201.127 52.8031 206.292 57 208.124C64.1367 211.24 72.2761 212.382 80 212.91C106.32 214.713 130.987 201.312 157 201.004C173.399 200.81 185.882 210.164 183.891 227.996C183.265 233.602 178.46 235.664 174 238.139C164.57 243.372 154.331 248.133 144 251.279C105.171 263.104 53.6824 264.637 35 220L33 220C19.0474 239.65 16.0282 273.734 35.0903 291.816C43.8254 300.101 55.7466 300.982 65 307.513C70.768 311.584 77.4466 330.181 84.9414 328.427C95.8093 325.884 82.1438 311.212 79 308C91.3906 310.866 97.4949 318.268 101.934 330C103.421 333.927 103.519 340.288 106.703 343.258C111.713 347.93 117.981 342.791 117.441 337C116.578 327.737 109.56 318.805 105 311C121.353 305.098 121.579 332.283 137 334C131.115 323.724 116.34 314.393 126.649 301.105C131.518 294.829 141.914 294.108 149 291.656C160.758 287.588 172.786 281.377 182 272.907C197.242 258.896 213.578 241.791 218.497 221C223.55 199.64 208.123 178.558 185 180.184C173.476 180.995 162.881 185.46 152 189C141.404 164.447 109.43 164.812 87 168.275C76.9536 169.826 66.9949 173.388 57 169.532C43.7452 164.418 43.9378 153.995 39 143z"/>
<path style="fill:#d1779a; stroke:none;" d="M47.3333 143.667L47.6667 144.333L47.3333 143.667M112 143L113 144L112 143z"/>
<path style="fill:#e1ab82; stroke:none;" d="M166 143L167 144L166 143z"/>
<path style="fill:#d1779a; stroke:none;" d="M109 144L110 145L109 144M37 145L38 146L37 145M48 145L49 146L48 145M107 145L108 146L107 145z"/>
<path style="fill:#e1ab82; stroke:none;" d="M49 146L50 147L49 146z"/>
<path style="fill:#d1779a; stroke:none;" d="M104 146L105 147L104 146z"/>
<path style="fill:#e1ab82; stroke:none;" d="M36 147L37 148L36 147M40 147L41 148L40 147z"/>
<path style="fill:#d1779a; stroke:none;" d="M51 147L52 148L51 147M102 147L103 148L102 147M171 147L172 148L171 147M36 148L37 149L36 148M40 148L41 149L40 148M52 148L53 149L52 148M99 148L100 149L99 148z"/>
<path style="fill:#e1ab82; stroke:none;" d="M100 148L101 149L100 148z"/>
<path style="fill:#d1779a; stroke:none;" d="M172 148L173 149L172 148M54 149L55 150L54 149M97 149L98 150L97 149M173 149L174 150L173 149z"/>
<path style="fill:#fff6f4; stroke:none;" d="M366 149L366 212C394.348 211.747 394.847 149.615 366 149z"/>
<path style="fill:#d1779a; stroke:none;" d="M35.3333 150.667L35.6667 151.333L35.3333 150.667M56 150L57 151L56 150M94 150L95 151L94 150M174 150L175 151L174 150z"/>
<path style="fill:#e1ab82; stroke:none;" d="M41 151L42 152L41 151M57 151L58 152L57 151z"/>
<path style="fill:#d1779a; stroke:none;" d="M58 151L59 152L58 151M91 151L92 152L91 151M175 151L176 152L175 151M41 152L42 153L41 152M60 152L61 153L60 152M87 152L88 153L87 152z"/>
<path style="fill:#e1ab82; stroke:none;" d="M88 152L89 153L88 152z"/>
<path style="fill:#fdb5b9; stroke:none;" d="M192.333 152.667L192.667 153.333L192.333 152.667z"/>
<path style="fill:#d1779a; stroke:none;" d="M34.3333 153.667L34.6667 154.333L34.3333 153.667z"/>
<path style="fill:#e1ab82; stroke:none;" d="M63 153L64 154L63 153z"/>
<path style="fill:#d1779a; stroke:none;" d="M64.6667 153.333L65.3333 153.667L64.6667 153.333M82.6667 153.333L83.3333 153.667L82.6667 153.333z"/>
<path style="fill:#e1ab82; stroke:none;" d="M42 154L43 155L42 154M72 154L72 155L75 155L72 154z"/>
<path style="fill:#d1779a; stroke:none;" d="M75 154L76 155L75 154z"/>
<path style="fill:#e1ab82; stroke:none;" d="M76 154L77 155L76 154M177 154L178 155L177 154z"/>
<path style="fill:#d1779a; stroke:none;" d="M42 155L43 156L42 155M178 155L179 156L178 155z"/>
<path style="fill:#e1ab82; stroke:none;" d="M33 156L34 157L33 156z"/>
<path style="fill:#d1779a; stroke:none;" d="M179 156L180 157L179 156M191 156L191 161L192 161L191 156M33.3333 157.667L33.6667 158.333L33.3333 157.667M43 157L44 158L43 157z"/>
<path style="fill:#e1ab82; stroke:none;" d="M180 158L181 159L180 158z"/>
<path style="fill:#fdb5b9; stroke:none;" d="M472 158.439C442.584 163.069 424.689 197.835 446.301 221.96C457.087 234 475.667 236.976 491 234.561C520.568 229.905 536.369 194.671 515.535 171.09C505.167 159.355 486.876 156.097 472 158.439M620 158.439C591.901 162.862 573.535 194.074 591.927 218.996C604.015 235.374 629.996 239.128 648 231.535C653.383 229.266 675.985 210.961 662.891 205.758C656.828 203.349 646.539 210.206 640 210.829C621.673 212.574 613.413 192.66 622.086 178.005C623.696 175.283 629.244 169.756 631.357 175.153C634.044 182.014 626.314 190.041 632.434 196.721C641.573 206.699 661.095 196.438 664.532 186C672.957 160.409 637.132 155.742 620 158.439M714 200C724.623 200 738.062 202.188 748 197.786C760.785 192.124 762.153 175.814 752.671 166.329C745.6 159.255 734.47 158.004 725 158C696.854 157.989 671.34 178.467 680.44 209C687.286 231.97 716.071 239.262 737 233.087C745.552 230.564 762.073 221.001 760.381 210.019C759.106 201.739 749.528 206.775 745 208.251C733.247 212.082 720.059 212.627 714 200z"/>
<path style="fill:#d1779a; stroke:none;" d="M44 159L45 160L44 159M181 159L182 160L181 159M45 161L46 162L45 161z"/>
<path style="fill:#e1ab82; stroke:none;" d="M191.333 161.667L191.667 162.333L191.333 161.667z"/>
<path style="fill:#d1779a; stroke:none;" d="M46 162L47 163L46 162M183 162L184 163L183 162z"/>
<path style="fill:#fdb5b9; stroke:none;" d="M192 162L193 163L192 162z"/>
<path style="fill:#d1779a; stroke:none;" d="M32 163L32 172L33 172L32 163M47 163L48 164L47 163M191 163L192 164L191 163M195 163L196 164L195 163z"/>
<path style="fill:#e1ab82; stroke:none;" d="M196 163L197 164L196 163z"/>
<path style="fill:#fdb5b9; stroke:none;" d="M197 163L198 164L197 163z"/>
<path style="fill:#d1779a; stroke:none;" d="M48 164L49 165L48 164M184 164L185 165L184 164M199 164L200 165L199 164z"/>
<path style="fill:#fdb5b9; stroke:none;" d="M200 164L201 165L200 164z"/>
<path style="fill:#d1779a; stroke:none;" d="M49 165L50 166L49 165M202 165L203 166L202 165z"/>
<path style="fill:#fdb5b9; stroke:none;" d="M203 165L204 166L203 165z"/>
<path style="fill:#d1779a; stroke:none;" d="M50 166L51 167L50 166z"/>
<path style="fill:#e1ab82; stroke:none;" d="M96 166L97 167L96 166z"/>
<path style="fill:#d1779a; stroke:none;" d="M97 166L97 167L116 167L97 166z"/>
<path style="fill:#e1ab82; stroke:none;" d="M116 166L117 167L116 166z"/>
<path style="fill:#d1779a; stroke:none;" d="M204.667 166.333L205.333 166.667L204.667 166.333z"/>
<path style="fill:#fdb5b9; stroke:none;" d="M206 166L207 167L206 166z"/>
<path style="fill:#d1779a; stroke:none;" d="M52 167L53 168L52 167z"/>
<path style="fill:#e1ab82; stroke:none;" d="M88 167L89 168L88 167z"/>
<path style="fill:#d1779a; stroke:none;" d="M89 167L89 168L93 168L89 167M121.667 167.333L122.333 167.667L121.667 167.333z"/>
<path style="fill:#e1ab82; stroke:none;" d="M123 167L124 168L123 167z"/>
<path style="fill:#d1779a; stroke:none;" d="M207 167L208 168L207 167z"/>
<path style="fill:#fdb5b9; stroke:none;" d="M208 167L209 168L208 167z"/>
<path style="fill:#d1779a; stroke:none;" d="M54 168L55 169L54 168M84.6667 168.333L85.3333 168.667L84.6667 168.333M126 168L127 169L126 168z"/>
<path style="fill:#e1ab82; stroke:none;" d="M127 168L128 169L127 168z"/>
<path style="fill:#d1779a; stroke:none;" d="M209 168L210 169L209 168z"/>
<path style="fill:#fdb5b9; stroke:none;" d="M210 168L211 169L210 168z"/>
<path style="fill:#d1779a; stroke:none;" d="M56 169L57 170L56 169z"/>
<path style="fill:#e1ab82; stroke:none;" d="M57 169L58 170L57 169z"/>
<path style="fill:#d1779a; stroke:none;" d="M79.6667 169.333L80.3333 169.667L79.6667 169.333M129 169L130 170L129 169z"/>
<path style="fill:#e1ab82; stroke:none;" d="M130 169L131 170L130 169z"/>
<path style="fill:#d1779a; stroke:none;" d="M187.667 169.333L188.333 169.667L187.667 169.333M211 169L212 170L211 169z"/>
<path style="fill:#fdb5b9; stroke:none;" d="M212 169L213 170L212 169z"/>
<path style="fill:#d1779a; stroke:none;" d="M59.6667 170.333L60.3333 170.667L59.6667 170.333z"/>
<path style="fill:#e1ab82; stroke:none;" d="M73 170L74 171L73 170z"/>
<path style="fill:#d1779a; stroke:none;" d="M74.6667 170.333L75.3333 170.667L74.6667 170.333M132 170L133 171L132 170z"/>
<path style="fill:#e1ab82; stroke:none;" d="M190 170L191 171L190 170z"/>
<path style="fill:#d1779a; stroke:none;" d="M191.667 170.333L192.333 170.667L191.667 170.333M213 170L214 171L213 170M65 171L65 172L69 172L65 171M134 171L135 172L134 171z"/>
<path style="fill:#e1ab82; stroke:none;" d="M135 171L136 172L135 171z"/>
<path style="fill:#d1779a; stroke:none;" d="M195.667 171.333L196.333 171.667L195.667 171.333M214 171L215 172L214 171z"/>
<path style="fill:#fdb5b9; stroke:none;" d="M215 171L216 172L215 171z"/>
<path style="fill:#e1ab82; stroke:none;" d="M32 172L33 173L32 172z"/>
<path style="fill:#d1779a; stroke:none;" d="M136 172L137 173L136 172z"/>
<path style="fill:#e1ab82; stroke:none;" d="M198 172L199 173L198 172z"/>
<path style="fill:#d1779a; stroke:none;" d="M199 172L200 173L199 172z"/>
<path style="fill:#e1ab82; stroke:none;" d="M216 172L217 173L216 172z"/>
<path style="fill:#fff6f4; stroke:none;" d="M713 190C716.58 190 722.476 191.099 725.566 188.972C729.225 186.454 729.316 175.669 725.566 173.184C717.047 167.537 713.234 184.89 713 190z"/>
<path style="fill:#d1779a; stroke:none;" d="M138 173L139 174L138 173M201 173L202 174L201 173M217 173L218 174L217 173z"/>
<path style="fill:#e1ab82; stroke:none;" d="M140 174L141 175L140 174z"/>
<path style="fill:#d1779a; stroke:none;" d="M203 174L204 175L203 174M218 174L219 175L218 174z"/>
<path style="fill:#fdb5b9; stroke:none;" d="M219 174L220 175L219 174z"/>
<path style="fill:#d1779a; stroke:none;" d="M141 175L142 176L141 175M205 175L206 176L205 175z"/>
<path style="fill:#fdb5b9; stroke:none;" d="M220 175L221 176L220 175z"/>
<path style="fill:#d1779a; stroke:none;" d="M142 176L143 177L142 176M207 176L208 177L207 176z"/>
<path style="fill:#fdb5b9; stroke:none;" d="M221 176L222 177L221 176z"/>
<path style="fill:#fff6f4; stroke:none;" d="M480.101 176.971C470.477 179.136 472.322 201.347 474.16 208C475.111 211.444 477.339 217.1 481.96 216.168C491.759 214.193 489.416 191.637 487.76 185C486.902 181.561 484.704 175.935 480.101 176.971z"/>
<path style="fill:#e1ab82; stroke:none;" d="M144 177L145 178L144 177z"/>
<path style="fill:#d1779a; stroke:none;" d="M208 177L209 178L208 177z"/>
<path style="fill:#fdb5b9; stroke:none;" d="M222 177L223 178L222 177z"/>
<path style="fill:#d1779a; stroke:none;" d="M33.3333 178.667L33.6667 179.333L33.3333 178.667M145 178L146 179L145 178M210 178L211 179L210 178z"/>
<path style="fill:#fdb5b9; stroke:none;" d="M223 178L224 179L223 178z"/>
<path style="fill:#e1ab82; stroke:none;" d="M146 179L147 180L146 179z"/>
<path style="fill:#d1779a; stroke:none;" d="M212 179L213 180L212 179z"/>
<path style="fill:#fdb5b9; stroke:none;" d="M224 179L225 180L224 179z"/>
<path style="fill:#e1ab82; stroke:none;" d="M147 180L148 181L147 180M178 180L179 181L178 180z"/>
<path style="fill:#d1779a; stroke:none;" d="M179 180L179 181L183 181L179 180M190 180L191 181L190 180z"/>
<path style="fill:#e1ab82; stroke:none;" d="M191 180L192 181L191 180z"/>
<path style="fill:#d1779a; stroke:none;" d="M213 180L214 181L213 180M174 181L175 182L174 181M194.667 181.333L195.333 181.667L194.667 181.333z"/>
<path style="fill:#e1ab82; stroke:none;" d="M196 181L197 182L196 181M214 181L215 182L214 181z"/>
<path style="fill:#d1779a; stroke:none;" d="M215 181L216 182L215 181M225 181L226 182L225 181M148 182L149 183L148 182M171 182L172 183L171 182M198 182L199 183L198 182M216 182L217 183L216 182M226 182L227 183L226 182M34 183L35 184L34 183M149 183L150 184L149 183M168 183L169 184L168 183M201 183L202 184L201 183M217 183L218 184L217 183z"/>
<path style="fill:#fdb5b9; stroke:none;" d="M227 183L228 184L227 183z"/>
<path style="fill:#e1ab82; stroke:none;" d="M34 184L35 185L34 184z"/>
<path style="fill:#d1779a; stroke:none;" d="M165 184L166 185L165 184M203 184L204 185L203 184M218 184L219 185L218 184z"/>
<path style="fill:#fdb5b9; stroke:none;" d="M228 184L229 185L228 184z"/>
<path style="fill:#d1779a; stroke:none;" d="M150 185L151 186L150 185M162 185L163 186L162 185M205 185L206 186L205 185M219 185L220 186L219 185M228 185L229 186L228 185M35 186L36 187L35 186M159 186L160 187L159 186z"/>
<path style="fill:#e1ab82; stroke:none;" d="M207 186L208 187L207 186z"/>
<path style="fill:#d1779a; stroke:none;" d="M220 186L221 187L220 186z"/>
<path style="fill:#fdb5b9; stroke:none;" d="M229 186L230 187L229 186z"/>
<path style="fill:#e1ab82; stroke:none;" d="M35 187L36 188L35 187z"/>
<path style="fill:#d1779a; stroke:none;" d="M151 187L152 188L151 187M156 187L157 188L156 187M208 187L209 188L208 187M221 187L222 188L221 187M229 187L230 188L229 187M152.667 188.333L153.333 188.667L152.667 188.333M209 188L210 189L209 188M222 188L223 189L222 188z"/>
<path style="fill:#e1ab82; stroke:none;" d="M230 188L231 189L230 188z"/>
<path style="fill:#d1779a; stroke:none;" d="M36 189L37 190L36 189M57 189L58 190L57 189M210 189L211 190L210 189M223 189L224 190L223 189M224 190L225 191L224 190M231 190L232 191L231 190z"/>
<path style="fill:#e1ab82; stroke:none;" d="M37 191L38 192L37 191z"/>
<path style="fill:#d1779a; stroke:none;" d="M38 192L39 193L38 192M213 192L214 193L213 192M232 192L233 193L232 192M214 193L215 194L214 193z"/>
<path style="fill:#e1ab82; stroke:none;" d="M226 193L227 194L226 193z"/>
<path style="fill:#d1779a; stroke:none;" d="M227 194L228 195L227 194z"/>
<path style="fill:#e1ab82; stroke:none;" d="M233 194L234 195L233 194z"/>
<path style="fill:#d1779a; stroke:none;" d="M37 195L38 196L37 195M215 195L216 196L215 195M233 195L234 196L233 195M36 196L37 197L36 196z"/>
<path style="fill:#e1ab82; stroke:none;" d="M216 196L217 197L216 196z"/>
<path style="fill:#d1779a; stroke:none;" d="M228 196L229 197L228 196z"/>
<path style="fill:#e1ab82; stroke:none;" d="M234 196L235 197L234 196z"/>
<path style="fill:#d1779a; stroke:none;" d="M35 197L36 198L35 197M216 197L217 198L216 197M229 197L230 198L229 197M234 197L235 198L234 197z"/>
<path style="fill:#e1ab82; stroke:none;" d="M217 198L218 199L217 198M229 198L230 199L229 198z"/>
<path style="fill:#d1779a; stroke:none;" d="M217 199L218 200L217 199M230 199L231 200L230 199z"/>
<path style="fill:#fdb5b9; stroke:none;" d="M235 199L236 200L235 199z"/>
<path style="fill:#d1779a; stroke:none;" d="M33 200L34 201L33 200M43 200L44 201L43 200M235 200L236 201L235 200z"/>
<path style="fill:#e1ab82; stroke:none;" d="M32 201L33 202L32 201z"/>
<path style="fill:#d1779a; stroke:none;" d="M40 201L41 202L40 201M150.667 201.333L151.333 201.667L150.667 201.333z"/>
<path style="fill:#e1ab82; stroke:none;" d="M165 201L166 202L165 201z"/>
<path style="fill:#d1779a; stroke:none;" d="M166.667 201.333L167.333 201.667L166.667 201.333M218 201L219 202L218 201M231 201L232 202L231 201z"/>
<path style="fill:#e1ab82; stroke:none;" d="M39 202L40 203L39 202z"/>
<path style="fill:#d1779a; stroke:none;" d="M47 202L48 203L47 202M144.667 202.333L145.333 202.667L144.667 202.333M170 202L171 203L170 202z"/>
<path style="fill:#fdb5b9; stroke:none;" d="M236 202L237 203L236 202z"/>
<path style="fill:#d1779a; stroke:none;" d="M31 203L32 204L31 203M37 203L38 204L37 203M48 203L49 204L48 203M138.667 203.333L139.333 203.667L138.667 203.333M173 203L174 204L173 203M232 203L233 204L232 203M236.333 203.667L236.667 204.333L236.333 203.667M36 204L37 205L36 204M50 204L51 205L50 204M134 204L135 205L134 204z"/>
<path style="fill:#e1ab82; stroke:none;" d="M135 204L136 205L135 204M174 204L175 205L174 204M219 204L220 205L219 204z"/>
<path style="fill:#d1779a; stroke:none;" d="M30 205L31 206L30 205z"/>
<path style="fill:#e1ab82; stroke:none;" d="M35 205L36 206L35 205z"/>
<path style="fill:#d1779a; stroke:none;" d="M51 205L52 206L51 205M129.667 205.333L130.333 205.667L129.667 205.333M176 205L177 206L176 205M219.333 205.667L219.667 206.333L219.333 205.667M233 205L234 206L233 205z"/>
<path style="fill:#e1ab82; stroke:none;" d="M34 206L35 207L34 206z"/>
<path style="fill:#d1779a; stroke:none;" d="M53 206L54 207L53 206M125 206L126 207L125 206z"/>
<path style="fill:#e1ab82; stroke:none;" d="M126 206L127 207L126 206z"/>
<path style="fill:#d1779a; stroke:none;" d="M177 206L178 207L177 206z"/>
<path style="fill:#fdb5b9; stroke:none;" d="M237 206L238 207L237 206z"/>
<path style="fill:#d1779a; stroke:none;" d="M55 207L56 208L55 207M120.667 207.333L121.333 207.667L120.667 207.333M178 207L179 208L178 207z"/>
<path style="fill:#e1ab82; stroke:none;" d="M237 207L238 208L237 207z"/>
<path style="fill:#d1779a; stroke:none;" d="M29.3333 208.667L29.6667 209.333L29.3333 208.667M57 208L58 209L57 208M116 208L117 209L116 208z"/>
<path style="fill:#e1ab82; stroke:none;" d="M117 208L118 209L117 208z"/>
<path style="fill:#d1779a; stroke:none;" d="M179 208L180 209L179 208M234.333 208.667L234.667 209.333L234.333 208.667M237 208L238 209L237 208M31 209L32 210L31 209M59.6667 209.333L60.3333 209.667L59.6667 209.333M111.667 209.333L112.333 209.667L111.667 209.333M30 210L31 211L30 210M63 210L64 211L63 210M107 210L108 211L107 210z"/>
<path style="fill:#e1ab82; stroke:none;" d="M108 210L109 211L108 210z"/>
<path style="fill:#d1779a; stroke:none;" d="M180 210L181 211L180 210M67.6667 211.333L68.3333 211.667L67.6667 211.333M100 211L100 212L103 212L100 211M235.333 211.667L235.667 212.333L235.333 211.667z"/>
<path style="fill:#fdb5b9; stroke:none;" d="M238 211L238 214L239 214L238 211z"/>
<path style="fill:#e1ab82; stroke:none;" d="M29 212L30 213L29 212M71.6667 212.333L72.3333 212.667L71.6667 212.333z"/>
<path style="fill:#d1779a; stroke:none;" d="M73 212L73 213L77 213L73 212M91 212L91 213L95 213L91 212z"/>
<path style="fill:#e1ab82; stroke:none;" d="M95 212L96 213L95 212z"/>
<path style="fill:#d1779a; stroke:none;" d="M181 212L182 213L181 212z"/>
<path style="fill:#e1ab82; stroke:none;" d="M28 214L29 215L28 214M238.333 214.667L238.667 215.333L238.333 214.667z"/>
<path style="fill:#d1779a; stroke:none;" d="M182 215L183 216L182 215M219 215L219 218L220 218L219 215M236.333 215.667L236.667 216.333L236.333 215.667M238 216L238 227L239 227L238 216z"/>
<path style="fill:#e1ab82; stroke:none;" d="M236 217L237 218L236 217z"/>
<path style="fill:#d1779a; stroke:none;" d="M34 218L33 220L35 220L34 218M183 219L183 223L184 223L183 219M35 221L36 222L35 221M218 221L219 222L218 221M31 222L32 223L31 222z"/>
<path style="fill:#e1ab82; stroke:none;" d="M218 222L219 223L218 222z"/>
<path style="fill:#d1779a; stroke:none;" d="M30 223L31 224L30 223M36 223L37 224L36 223z"/>
<path style="fill:#e1ab82; stroke:none;" d="M183 223L183 227L184 227L183 223M29 224L30 225L29 224z"/>
<path style="fill:#d1779a; stroke:none;" d="M217.333 224.667L217.667 225.333L217.333 224.667z"/>
<path style="fill:#e1ab82; stroke:none;" d="M237 224L238 225L237 224z"/>
<path style="fill:#d1779a; stroke:none;" d="M37 225L38 226L37 225M28 226L29 227L28 226z"/>
<path style="fill:#e1ab82; stroke:none;" d="M38 226L39 227L38 226M237 226L237 228L239 228L237 226z"/>
<path style="fill:#d1779a; stroke:none;" d="M38 227L39 228L38 227M183 227L183 232L184 232L183 227M216 227L217 228L216 227M27 228L28 229L27 228M39 228L40 229L39 228z"/>
<path style="fill:#e1ab82; stroke:none;" d="M216 228L217 229L216 228z"/>
<path style="fill:#d1779a; stroke:none;" d="M237.333 228.667L237.667 229.333L237.333 228.667M26 230L27 231L26 230M40 230L41 231L40 230z"/>
<path style="fill:#e1ab82; stroke:none;" d="M215 230L216 231L215 230M41 231L42 232L41 231z"/>
<path style="fill:#d1779a; stroke:none;" d="M25 232L26 233L25 232M214 232L215 233L214 232M42 233L43 234L42 233M182 233L183 234L182 233z"/>
<path style="fill:#e1ab82; stroke:none;" d="M24 234L25 235L24 234z"/>
<path style="fill:#d1779a; stroke:none;" d="M43 234L44 235L43 234M180 234L181 235L180 234M213 234L214 235L213 234M24 235L25 236L24 235M44 235L45 236L44 235M178 235L179 236L178 235M176 236L177 237L176 236M212 236L213 237L212 236M45 237L46 238L45 237z"/>
<path style="fill:#e1ab82; stroke:none;" d="M174 237L175 238L174 237z"/>
<path style="fill:#d1779a; stroke:none;" d="M175 237L176 238L175 237M23 238L24 239L23 238M46 238L47 239L46 238z"/>
<path style="fill:#e1ab82; stroke:none;" d="M172 238L173 239L172 238z"/>
<path style="fill:#d1779a; stroke:none;" d="M173 238L174 239L173 238z"/>
<path style="fill:#e1ab82; stroke:none;" d="M211 238L212 239L211 238z"/>
<path style="fill:#d1779a; stroke:none;" d="M47 239L48 240L47 239z"/>
<path style="fill:#e1ab82; stroke:none;" d="M170 239L171 240L170 239z"/>
<path style="fill:#d1779a; stroke:none;" d="M171 239L172 240L171 239M210 239L211 240L210 239M48 240L49 241L48 240M169 240L170 241L169 240M167 241L168 242L167 241M209 241L210 242L209 241M22.3333 242.667L22.6667 243.333L22.3333 242.667z"/>
<path style="fill:#e1ab82; stroke:none;" d="M51 242L52 243L51 242z"/>
<path style="fill:#d1779a; stroke:none;" d="M165 242L166 243L165 242z"/>
<path style="fill:#e1ab82; stroke:none;" d="M52 243L53 244L52 243M162 243L163 244L162 243z"/>
<path style="fill:#d1779a; stroke:none;" d="M163 243L164 244L163 243M53 244L54 245L53 244M160.667 244.333L161.333 244.667L160.667 244.333M207 244L208 245L207 244M54 245L55 246L54 245M158 245L159 246L158 245M206 245L207 246L206 245z"/>
<path style="fill:#e1ab82; stroke:none;" d="M56 246L57 247L56 246z"/>
<path style="fill:#d1779a; stroke:none;" d="M156 246L157 247L156 246M57 247L58 248L57 247M153.667 247.333L154.333 247.667L153.667 247.333M205 247L206 248L205 247M59 248L60 249L59 248M151 248L152 249L151 248M204 248L205 249L204 248z"/>
<path style="fill:#e1ab82; stroke:none;" d="M21 249L22 250L21 249z"/>
<path style="fill:#d1779a; stroke:none;" d="M61 249L62 250L61 249M148.667 249.333L149.333 249.667L148.667 249.333M21 250L21 258L22 258L21 250M62 250L63 251L62 250z"/>
<path style="fill:#e1ab82; stroke:none;" d="M63 250L64 251L63 250z"/>
<path style="fill:#d1779a; stroke:none;" d="M145.667 250.333L146.333 250.667L145.667 250.333M64.6667 251.333L65.3333 251.667L64.6667 251.333M142.667 251.333L143.333 251.667L142.667 251.333M176 251L177 252L176 251z"/>
<path style="fill:#e1ab82; stroke:none;" d="M202 251L203 252L202 251z"/>
<path style="fill:#d1779a; stroke:none;" d="M66.6667 252.333L67.3333 252.667L66.6667 252.333z"/>
<path style="fill:#e1ab82; stroke:none;" d="M138 252L139 253L138 252z"/>
<path style="fill:#d1779a; stroke:none;" d="M139 252L140 253L139 252M201 252L202 253L201 252M69 253L70 254L69 253z"/>
<path style="fill:#e1ab82; stroke:none;" d="M135 253L136 254L135 253z"/>
<path style="fill:#d1779a; stroke:none;" d="M136 253L137 254L136 253M175 253L176 254L175 253M200 253L201 254L200 253M71.6667 254.333L72.3333 254.667L71.6667 254.333z"/>
<path style="fill:#e1ab82; stroke:none;" d="M131 254L132 255L131 254z"/>
<path style="fill:#d1779a; stroke:none;" d="M132.667 254.333L133.333 254.667L132.667 254.333M199 254L200 255L199 254M74.6667 255.333L75.3333 255.667L74.6667 255.333z"/>
<path style="fill:#e1ab82; stroke:none;" d="M127 255L128 256L127 255z"/>
<path style="fill:#d1779a; stroke:none;" d="M128.667 255.333L129.333 255.667L128.667 255.333M77 256L77 257L80 257L77 256M123.667 256.333L124.333 256.667L123.667 256.333M82.6667 257.333L83.3333 257.667L82.6667 257.333z"/>
<path style="fill:#e1ab82; stroke:none;" d="M84 257L85 258L84 257M117 257L118 258L117 257z"/>
<path style="fill:#d1779a; stroke:none;" d="M118 257L118 258L121 258L118 257z"/>
<path style="fill:#e1ab82; stroke:none;" d="M21 258L22 259L21 258z"/>
<path style="fill:#d1779a; stroke:none;" d="M88 258L88 259L92 259L88 258z"/>
<path style="fill:#e1ab82; stroke:none;" d="M92 258L93 259L92 258M109 258L110 259L109 258z"/>
<path style="fill:#d1779a; stroke:none;" d="M110 258L110 259L113 259L110 258z"/>
<path style="fill:#e1ab82; stroke:none;" d="M195 259L196 260L195 259M194 260L195 261L194 260M193 261L194 262L193 261M192 262L193 263L192 262z"/>
<path style="fill:#d1779a; stroke:none;" d="M22.3333 263.667L22.6667 264.333L22.3333 263.667z"/>
<path style="fill:#e1ab82; stroke:none;" d="M191 263L192 264L191 263M190 264L191 265L190 264z"/>
<path style="fill:#d1779a; stroke:none;" d="M189 265L190 266L189 265M188 266L189 267L188 266M187 267L188 268L187 267M23.3333 268.667L23.6667 269.333L23.3333 268.667M186 268L187 269L186 268M185 269L186 270L185 269M184 270L185 271L184 270z"/>
<path style="fill:#e1ab82; stroke:none;" d="M183 294C182.875 290.122 182.498 287.928 179 286L178 293C162.67 288.381 175.666 306.403 175.303 312.941C174.791 322.17 167.736 309.587 167 307L165 307L164 310L156 297L155 305C146.053 294.551 142.474 306.97 131 303C131.525 307.75 136.171 313.06 130 315C131.783 318.745 134.119 321.318 136.807 324.424C141.06 329.339 137.198 336.035 131.003 332.253C119.577 325.278 121.534 310.012 106 310C107.603 318.99 114.861 325.318 117.208 334C118.405 338.431 114.741 343.067 116.736 347C119.762 352.963 127.315 357.374 132 362.004C144.272 374.13 156.383 386.336 169 398.09C179.37 407.749 189.881 422.153 203 428C208.907 408.559 207.707 385.167 209.09 365C211.251 333.464 215 301.631 215 270C207.965 271.832 199.162 278.389 195.991 285.09C194.73 287.754 194.397 296.555 191.542 297.655C189.247 298.54 185.297 294.691 183 294z"/>
<path style="fill:#d1779a; stroke:none;" d="M183 271L184 272L183 271M24.3333 272.667L24.6667 273.333L24.3333 272.667M182 272L183 273L182 272M181 273L182 274L181 273z"/>
<path style="fill:#fdb5b9; stroke:none;" d="M24 274L25 275L24 274z"/>
<path style="fill:#e1ab82; stroke:none;" d="M180 274L181 275L180 274z"/>
<path style="fill:#d1779a; stroke:none;" d="M25 276L26 277L25 276M177 276L178 277L177 276z"/>
<path style="fill:#fdb5b9; stroke:none;" d="M25 277L26 278L25 277z"/>
<path style="fill:#d1779a; stroke:none;" d="M176 277L177 278L176 277M26 278L27 279L26 278M174 278L175 279L174 278z"/>
<path style="fill:#fdb5b9; stroke:none;" d="M343 350C352.24 349.999 362.128 349.522 371 346.795C395.503 339.262 406.642 307.836 385.96 289.301C372.682 277.401 355.639 278 339 278C328.774 278 315.146 275.497 309.09 286.004C302.601 297.259 307 320.243 307 333C307 344.34 302.997 365.442 310.652 374.786C317.415 383.043 334.545 381.759 340.157 372.985C344.351 366.426 343 357.399 343 350M420 278.533C408.929 281.229 409 292.828 409 302C409 322.145 406.564 344.062 409.428 364C411.092 375.585 418.747 382.672 430.999 379.442C442.471 376.418 442 363.444 442 354L442 308C442 301.325 443.551 292.313 441.106 286.004C438.001 277.986 427.381 276.736 420 278.533z"/>
<path style="fill:#e1ab82; stroke:none;" d="M26 279L27 280L26 279z"/>
<path style="fill:#d1779a; stroke:none;" d="M173 279L174 280L173 279M171 280L172 281L171 280M27 281L28 282L27 281M170 281L171 282L170 281M168 282L169 283L168 282z"/>
<path style="fill:#e1ab82; stroke:none;" d="M28 283L29 284L28 283z"/>
<path style="fill:#d1779a; stroke:none;" d="M166 283L167 284L166 283z"/>
<path style="fill:#e1ab82; stroke:none;" d="M167 283L168 284L167 283z"/>
<path style="fill:#fdb5b9; stroke:none;" d="M214 283L214 289L215 289L214 283z"/>
<path style="fill:#d1779a; stroke:none;" d="M165 284L166 285L165 284z"/>
<path style="fill:#fdb5b9; stroke:none;" d="M29 285L30 286L29 285z"/>
<path style="fill:#d1779a; stroke:none;" d="M163 285L164 286L163 285M30 286L31 287L30 286M161 286L162 287L161 286M31 287L32 288L31 287M159 287L160 288L159 287M157 288L158 289L157 288z"/>
<path style="fill:#fdb5b9; stroke:none;" d="M32 289L33 290L32 289z"/>
<path style="fill:#d1779a; stroke:none;" d="M123 289L124 290L123 289M154 289L155 290L154 289z"/>
<path style="fill:#e1ab82; stroke:none;" d="M155 289L156 290L155 289z"/>
<path style="fill:#fdb5b9; stroke:none;" d="M33 290L34 291L33 290z"/>
<path style="fill:#d1779a; stroke:none;" d="M152 290L153 291L152 290z"/>
<path style="fill:#fdb5b9; stroke:none;" d="M34 291L35 292L34 291z"/>
<path style="fill:#d1779a; stroke:none;" d="M149.667 291.333L150.333 291.667L149.667 291.333z"/>
<path style="fill:#fdb5b9; stroke:none;" d="M35 292L36 293L35 292z"/>
<path style="fill:#d1779a; stroke:none;" d="M146.667 292.333L147.333 292.667L146.667 292.333z"/>
<path style="fill:#fdb5b9; stroke:none;" d="M36 293L37 294L36 293z"/>
<path style="fill:#d1779a; stroke:none;" d="M143 293L144 294L143 293z"/>
<path style="fill:#e1ab82; stroke:none;" d="M144 293L145 294L144 293z"/>
<path style="fill:#d1779a; stroke:none;" d="M38 294L39 295L38 294M139.667 294.333L140.333 294.667L139.667 294.333z"/>
<path style="fill:#e1ab82; stroke:none;" d="M39 295L40 296L39 295z"/>
<path style="fill:#d1779a; stroke:none;" d="M136 295L137 296L136 295z"/>
<path style="fill:#e1ab82; stroke:none;" d="M137 295L138 296L137 295z"/>
<path style="fill:#d1779a; stroke:none;" d="M41 296L42 297L41 296M132.667 296.333L133.333 296.667L132.667 296.333z"/>
<path style="fill:#e1ab82; stroke:none;" d="M42 297L43 298L42 297z"/>
<path style="fill:#d1779a; stroke:none;" d="M130 297L131 298L130 297z"/>
<path style="fill:#e1ab82; stroke:none;" d="M131 297L132 298L131 297z"/>
<path style="fill:#fff6f4; stroke:none;" d="M343 297L344 330C348.944 329.068 354.064 328.597 357.772 324.786C370.518 311.683 357.222 297.118 343 297z"/>
<path style="fill:#d1779a; stroke:none;" d="M44 298L45 299L44 298M128 298L129 299L128 298z"/>
<path style="fill:#fdb5b9; stroke:none;" d="M45 299L46 300L45 299z"/>
<path style="fill:#d1779a; stroke:none;" d="M46 299L47 300L46 299M127 299L128 300L127 299z"/>
<path style="fill:#fdb5b9; stroke:none;" d="M47 300L48 301L47 300z"/>
<path style="fill:#d1779a; stroke:none;" d="M48 300L49 301L48 300M126 300L127 301L126 300z"/>
<path style="fill:#fdb5b9; stroke:none;" d="M213 300L213 306L214 306L213 300M49 301L50 302L49 301z"/>
<path style="fill:#d1779a; stroke:none;" d="M50 301L51 302L50 301z"/>
<path style="fill:#fdb5b9; stroke:none;" d="M51 302L52 303L51 302z"/>
<path style="fill:#d1779a; stroke:none;" d="M52 302L53 303L52 302z"/>
<path style="fill:#e1ab82; stroke:none;" d="M125 302L126 303L125 302M54 303L55 304L54 303z"/>
<path style="fill:#fdb5b9; stroke:none;" d="M56 304L57 305L56 304z"/>
<path style="fill:#d1779a; stroke:none;" d="M57 304L58 305L57 304M124 304L125 305L124 304z"/>
<path style="fill:#fdb5b9; stroke:none;" d="M59 305L60 306L59 305z"/>
<path style="fill:#e1ab82; stroke:none;" d="M60 305L61 306L60 305z"/>
<path style="fill:#d1779a; stroke:none;" d="M61 305L62 306L61 305z"/>
<path style="fill:#fdb5b9; stroke:none;" d="M63 306L64 307L63 306z"/>
<path style="fill:#d1779a; stroke:none;" d="M64 306L65 307L64 306M65 307L66 308L65 307M123.333 307.667L123.667 308.333L123.333 307.667z"/>
<path style="fill:#fdb5b9; stroke:none;" d="M66 308L67 309L66 308z"/>
<path style="fill:#e1ab82; stroke:none;" d="M79 308L103 333C98.356 319.362 92.8629 311.934 79 308z"/>
<path style="fill:#d1779a; stroke:none;" d="M80.6667 308.333L81.3333 308.667L80.6667 308.333z"/>
<path style="fill:#fdb5b9; stroke:none;" d="M505 316C500.718 312.736 496.267 310.11 491 308.761C453.041 299.034 441.584 362.897 471 378.326C483.164 384.707 492.025 377.281 503.715 376.475C513.52 375.798 529.054 387.314 534.196 370.999C537.676 359.958 535 344.532 535 333C535 327.877 535.811 321.87 533.852 317.015C529.065 305.152 511.283 307.346 505 316M581 308.439C553.896 312.672 537.595 342.272 554.789 365.996C565.494 380.767 589.561 384.901 606 378.532C612.245 376.113 631.242 363.413 624.103 354.657C620.266 349.952 613.263 354.917 609 356.226C598.697 359.389 584.957 359.112 580.854 347C578.718 340.694 579.957 322.994 588.944 322.037C595.036 321.389 590.366 337.268 591.318 340.995C593.554 349.754 605.495 348.41 612 346.211C625.182 341.755 628.868 323.354 617.957 314.532C608.568 306.941 592.409 306.657 581 308.439M671 348C681.151 348 693.485 349.863 703 345.637C714.675 340.451 716.218 325.08 707.787 316.105C700.936 308.812 690.364 308.001 681 308C654.116 307.998 631.003 327.212 638.757 356C644.7 378.064 673.383 385.213 693 378.971C700.812 376.486 716.708 367.268 714.638 357.044C713.076 349.329 704.416 353.931 700 355.455C689.351 359.131 676.48 359.718 671 348z"/>
<path style="fill:#d1779a; stroke:none;" d="M84 309L85 310L84 309M108 309L108 310L114 310L108 309z"/>
<path style="fill:#e1ab82; stroke:none;" d="M123 309L124 310L123 309z"/>
<path style="fill:#fdb5b9; stroke:none;" d="M737 309.653C726.154 313.059 727 324.864 727 334C727 351.662 721.343 388.774 750.996 379.007C768.319 373.301 752.966 346.687 760.028 335.229C763.193 330.094 768.204 334.35 772 335.915C777.469 338.17 783.815 336.888 787.297 331.956C796.625 318.742 782.811 307.585 770 309.185C765.946 309.691 761.3 313.829 757.424 313.317C750.022 312.34 745.448 307 737 309.653z"/>
<path style="fill:#d1779a; stroke:none;" d="M87 310L88 311L87 310M90 311L91 312L90 311M105 311L106 312L105 311M116 312L117 313L116 312z"/>
<path style="fill:#e1ab82; stroke:none;" d="M71 313L72 314L71 313z"/>
<path style="fill:#d1779a; stroke:none;" d="M106 313L107 314L106 313M117 313L118 314L117 313z"/>
<path style="fill:#e1ab82; stroke:none;" d="M123 313L124 314L123 313z"/>
<path style="fill:#d1779a; stroke:none;" d="M72 314L73 315L72 314M123 314L124 315L123 314M85 315L86 316L85 315M94 315L95 316L94 315M107 315L108 316L107 315M118 315L119 316L118 315z"/>
<path style="fill:#fdb5b9; stroke:none;" d="M73 316L74 317L73 316z"/>
<path style="fill:#d1779a; stroke:none;" d="M86 316L87 317L86 316z"/>
<path style="fill:#fdb5b9; stroke:none;" d="M212 316L212 322L213 322L212 316z"/>
<path style="fill:#d1779a; stroke:none;" d="M74 317L75 318L74 317M87.3333 317.667L87.6667 318.333L87.3333 317.667M95 317L96 318L95 317M108 317L109 318L108 317M124 317L125 318L124 317z"/>
<path style="fill:#e1ab82; stroke:none;" d="M74 318L75 319L74 318z"/>
<path style="fill:#d1779a; stroke:none;" d="M120 318L121 319L120 318M96 319L97 320L96 319M109 319L110 320L109 319M125 319L126 320L125 319z"/>
<path style="fill:#e1ab82; stroke:none;" d="M75 320L76 321L75 320z"/>
<path style="fill:#fff6f4; stroke:none;" d="M89 320L90 321L89 320z"/>
<path style="fill:#d1779a; stroke:none;" d="M97 320L98 321L97 320M121 320L122 321L121 320z"/>
<path style="fill:#fdb5b9; stroke:none;" d="M89 321L90 322L89 321z"/>
<path style="fill:#d1779a; stroke:none;" d="M126 321L127 322L126 321z"/>
<path style="fill:#fff6f4; stroke:none;" d="M670 338C673.407 338 678.711 338.955 681.682 336.972C685.209 334.619 685.218 324.495 681.566 322.198C673.565 317.165 670.205 333.296 670 338z"/>
<path style="fill:#d1779a; stroke:none;" d="M76 322L77 323L76 322z"/>
<path style="fill:#e1ab82; stroke:none;" d="M89 322L90 323L89 322z"/>
<path style="fill:#d1779a; stroke:none;" d="M98 322L99 323L98 322M111 322L112 323L111 322M122 322L123 323L122 322z"/>
<path style="fill:#fdb5b9; stroke:none;" d="M76 323L77 324L76 323z"/>
<path style="fill:#d1779a; stroke:none;" d="M89 323L89 326L90 326L89 323M99 324L100 325L99 324M128 324L129 325L128 324z"/>
<path style="fill:#fdb5b9; stroke:none;" d="M77 325L78 326L77 325z"/>
<path style="fill:#d1779a; stroke:none;" d="M113 325L114 326L113 325M124 325L125 326L124 325z"/>
<path style="fill:#e1ab82; stroke:none;" d="M129 325L130 326L129 325z"/>
<path style="fill:#d1779a; stroke:none;" d="M78 326L79 327L78 326M100 326L101 327L100 326M79 327L80 328L79 327M87 327L88 328L87 327M114 327L115 328L114 327M125 327L126 328L125 327z"/>
<path style="fill:#fff6f4; stroke:none;" d="M493.34 328.029C486.188 332.401 487.013 348.239 489.225 354.999C490.688 359.472 494.797 363.925 499.852 360.971C505.378 357.743 504.156 337.579 502.566 332.019C501.446 328.099 497.081 325.741 493.34 328.029z"/>
<path style="fill:#e1ab82; stroke:none;" d="M80 328L81 329L80 328M86 328L87 329L86 328z"/>
<path style="fill:#d1779a; stroke:none;" d="M101 328L102 329L101 328M126 328L127 329L126 328z"/>
<path style="fill:#fdb5b9; stroke:none;" d="M83 329L84 330L83 329z"/>
<path style="fill:#d1779a; stroke:none;" d="M115 329L116 330L115 329M127 329L128 330L127 329M128 330L129 331L128 330M102 331L103 332L102 331M116.333 331.667L116.667 332.333L116.333 331.667M129 331L130 332L129 331M135 331L136 332L135 331M130 332L131 333L130 332M137.333 332.667L137.667 333.333L137.333 332.667z"/>
<path style="fill:#fdb5b9; stroke:none;" d="M211 332L211 337L212 337L211 332z"/>
<path style="fill:#d1779a; stroke:none;" d="M132 333L133 334L132 333M103 334L104 335L103 334M117 334L117 337L118 337L117 334z"/>
<path style="fill:#fdb5b9; stroke:none;" d="M103 335L104 336L103 335z"/>
<path style="fill:#d1779a; stroke:none;" d="M104 339L105 340L104 339z"/>
<path style="fill:#e1ab82; stroke:none;" d="M104 340L105 341L104 340z"/>
<path style="fill:#d1779a; stroke:none;" d="M117 340L118 341L117 340M105 342L106 343L105 342M107 344L108 345L107 344z"/>
<path style="fill:#fdb5b9; stroke:none;" d="M108 345L109 346L108 345z"/>
<path style="fill:#d1779a; stroke:none;" d="M109 345L109 346L113 346L109 345z"/>
<path style="fill:#fdb5b9; stroke:none;" d="M113 345L114 346L113 345M210 347L210 352L211 352L210 347M126 356L127 357L126 356M127 357L128 358L127 357M128 358L129 359L128 358M129 359L130 360L129 359M130 360L131 361L130 360M131 361L132 362L131 361M209 361L209 366L210 366L209 361M132 362L133 363L132 362M133 363L134 364L133 363M134 364L135 365L134 364M135 365L136 366L135 365M136 366L137 367L136 366M137 367L138 368L137 367M138 368L139 369L138 368M139 369L140 370L139 369M140 370L141 371L140 370M141 371L142 372L141 371M142 372L143 373L142 372M143 373L144 374L143 373M144 374L145 375L144 374M145 375L146 376L145 375M208 375L208 380L209 380L208 375M146 376L147 377L146 376M147 377L148 378L147 377M148 378L149 379L148 378M149 379L150 380L149 379M207 388L207 393L208 393L207 388M166 395L167 396L166 395M167 396L168 397L167 396M168 397L169 398L168 397M169 398L170 399L169 398M170 399L171 400L170 399M171 400L172 401L171 400M206 400L206 404L207 404L206 400M172 401L173 402L172 401M173 402L174 403L173 402M174 403L175 404L174 403M175 404L176 405L175 404M176 405L177 406L176 405M205 411L205 415L206 415L205 411M186 414L187 415L186 414M187 415L188 416L187 415M188 416L189 417L188 416M189 417L190 418L189 417M190 418L191 419L190 418M191 419L192 420L191 419M204 420L204 423L205 423L204 420M197 424L198 425L197 424M198 425L199 426L198 425M199 426L200 427L199 426M203 427L204 428L203 427M202 428L203 429L202 428z"/>
</svg>
