<?xml version="1.0" standalone="no"?>
<!DOCTYPE svg PUBLIC "-//W3C//DTD SVG 20010904//EN"
 "http://www.w3.org/TR/2001/REC-SVG-20010904/DTD/svg10.dtd">
<svg version="1.0" xmlns="http://www.w3.org/2000/svg"
 width="985.000000pt" height="410.000000pt" viewBox="0 0 985.000000 410.000000"
 preserveAspectRatio="xMidYMid meet">

<g transform="translate(0.000000,410.000000) scale(0.100000,-0.100000)"
fill="#000000" stroke="none">
<path d="M1215 3863 c-52 -8 -168 -69 -217 -112 -58 -51 -134 -164 -172 -253
l-28 -66 -75 -27 c-214 -78 -382 -258 -434 -465 -18 -70 -21 -102 -16 -180 10
-158 59 -270 158 -365 72 -68 159 -111 262 -127 l77 -12 0 -39 c0 -34 -7 -48
-46 -89 -25 -27 -57 -74 -72 -106 -24 -50 -27 -69 -27 -162 0 -94 3 -111 27
-163 15 -32 39 -72 53 -89 l25 -30 0 -294 c0 -260 -2 -294 -16 -294 -29 0 -56
21 -70 55 -19 47 -18 85 6 146 16 40 18 54 9 66 -23 26 -53 10 -87 -47 -69
-116 -79 -228 -27 -316 26 -43 123 -126 165 -139 19 -6 20 -16 20 -241 l0
-234 880 0 880 0 0 233 0 232 47 25 c75 40 146 116 166 179 9 29 17 65 17 80
-1 77 -84 220 -128 221 -34 0 -37 -24 -12 -99 21 -61 22 -72 10 -101 -13 -31
-61 -70 -87 -70 -10 0 -13 64 -13 289 l0 289 35 26 c80 61 128 206 107 324
-15 87 -55 162 -112 216 -47 44 -50 50 -50 95 0 45 2 49 48 81 26 19 86 72
134 118 172 167 263 348 275 547 21 355 -250 644 -602 645 -86 0 -234 -33
-315 -71 l-69 -32 -73 68 c-202 187 -379 281 -548 290 -41 2 -88 1 -105 -2z
m173 -138 c67 -16 165 -62 222 -104 19 -14 88 -70 154 -124 65 -55 144 -115
175 -135 66 -43 169 -82 214 -82 l32 0 -34 18 c-45 23 -74 63 -73 102 0 18 3
35 6 38 9 8 175 32 230 32 139 0 273 -48 359 -129 92 -87 137 -203 137 -352 0
-166 -60 -310 -180 -429 -111 -110 -237 -157 -395 -147 -49 3 -108 11 -130 18
l-40 12 30 21 c17 11 60 51 97 87 55 54 70 77 83 123 9 31 15 65 13 75 -3 17
-10 14 -63 -26 -132 -101 -279 -147 -403 -125 -137 23 -264 112 -332 232 l-31
55 4 -71 c5 -87 34 -149 94 -205 24 -22 43 -41 43 -43 0 -2 -43 -12 -95 -21
-69 -13 -126 -16 -203 -12 -164 7 -253 46 -386 168 l-59 54 7 -39 c18 -98 87
-184 193 -243 l57 -32 -88 -42 c-75 -36 -100 -43 -167 -47 -245 -14 -417 112
-466 342 -47 225 86 467 320 584 75 37 87 39 87 14 0 -42 34 -126 63 -158 18
-18 49 -41 71 -50 l39 -15 -7 23 c-43 160 -46 307 -6 410 23 63 102 158 154
186 95 52 168 62 274 37z m1021 -1660 c16 -14 43 -52 58 -83 23 -48 28 -70 28
-137 0 -69 -4 -86 -27 -126 -30 -52 -46 -59 -130 -59 l-57 0 -21 48 c-43 96
-123 152 -229 160 -41 3 -84 -1 -107 -8 -53 -18 -120 -64 -140 -99 l-17 -29
-45 24 c-61 33 -123 32 -191 -3 -52 -25 -54 -25 -64 -7 -21 39 -87 92 -133
108 -141 48 -298 -16 -353 -144 l-22 -50 -52 0 c-65 0 -90 16 -122 81 -47 91
-43 172 11 254 49 76 58 79 176 50 206 -49 313 -59 608 -60 171 0 315 5 380
13 154 20 304 50 352 72 57 25 61 24 97 -5z m-1215 -350 c-43 -41 -74 -74 -68
-75 7 0 46 32 87 70 71 66 99 82 111 61 4 -5 -44 -57 -106 -115 -62 -58 -109
-108 -105 -112 3 -4 57 41 118 100 101 96 139 122 139 97 0 -13 -270 -266
-284 -266 -21 0 -46 68 -46 126 0 105 84 189 189 189 l44 0 -79 -75z m771 0
c-44 -41 -74 -75 -67 -75 8 0 48 32 90 70 47 43 84 70 95 68 10 -2 18 -7 18
-11 0 -4 -49 -53 -108 -109 -59 -56 -110 -106 -112 -111 -8 -22 24 4 129 101
78 73 115 102 127 98 12 -5 -18 -39 -122 -139 -76 -72 -143 -133 -150 -135
-19 -5 -55 79 -55 127 0 48 26 104 67 143 36 35 68 47 123 47 l45 0 -80 -74z
m-549 -41 c54 -129 -45 -274 -186 -274 -45 0 -103 21 -116 41 -5 9 35 53 131
145 77 73 143 130 148 127 5 -3 15 -20 23 -39z m770 9 c62 -129 -36 -284 -178
-283 -41 0 -128 32 -128 46 0 8 272 273 281 274 4 0 15 -17 25 -37z m-497 2
c34 -17 41 -33 41 -90 0 -107 77 -217 178 -255 164 -62 342 35 370 203 7 38
10 42 37 42 l30 0 3 -287 c1 -159 -1 -288 -4 -288 -4 0 -50 42 -103 93 -53 50
-121 106 -151 122 -50 28 -63 30 -150 30 -78 -1 -115 -7 -207 -34 l-111 -33
-79 30 c-151 58 -271 65 -389 21 -43 -16 -78 -41 -138 -99 -80 -76 -123 -110
-138 -110 -5 0 -7 125 -6 278 l3 277 40 0 c39 0 40 -1 47 -42 19 -116 124
-209 247 -220 156 -14 281 92 300 255 10 85 44 120 119 121 18 1 46 -6 61 -14z
m-15 -870 c139 -89 279 -128 456 -129 69 -1 147 2 173 6 l48 8 -3 -138 -3
-137 -737 -3 -738 -2 0 145 0 145 28 -7 c15 -4 83 -7 152 -6 180 1 322 34 485
113 44 21 81 39 82 39 2 1 27 -15 57 -34z"/>
<path d="M8015 3673 c5 -40 25 -328 25 -369 0 -23 3 -24 65 -24 76 0 71 -10
80 160 3 63 8 150 11 193 l7 77 -97 0 -96 0 5 -37z"/>
<path d="M6702 3624 c-15 -6 -40 -26 -55 -43 -67 -80 -3 -211 103 -211 97 0
161 111 116 199 -28 53 -106 80 -164 55z"/>
<path d="M4450 2906 c0 -624 0 -630 -51 -694 -11 -15 -39 -37 -62 -49 -73 -40
-202 -27 -261 25 -27 24 -66 111 -66 150 l0 32 -103 0 -104 0 8 -57 c23 -165
116 -277 271 -324 98 -30 247 -24 331 14 77 35 128 76 166 135 66 103 64 88
68 727 2 319 1 590 -2 602 -5 22 -10 23 -100 23 l-95 0 0 -584z"/>
<path d="M5545 3189 c-247 -26 -437 -209 -482 -464 -18 -106 -13 -261 13 -345
84 -281 337 -448 619 -409 132 18 266 98 325 194 12 19 26 35 31 35 5 0 9 -50
9 -110 l0 -111 98 3 97 3 0 595 0 595 -95 0 -95 0 -5 -114 -5 -114 -29 42
c-65 94 -205 183 -305 196 -88 11 -106 11 -176 4z m280 -203 c169 -83 258
-274 227 -487 -6 -45 -23 -106 -36 -135 -35 -76 -116 -158 -195 -197 -61 -30
-73 -32 -166 -32 -88 0 -107 4 -155 27 -160 78 -250 230 -250 421 0 208 85
342 265 419 30 13 65 16 145 15 94 -2 111 -5 165 -31z"/>
<path d="M7732 3189 c-112 -14 -198 -68 -261 -163 l-26 -40 -3 98 -3 97 -97
-3 -97 -3 0 -595 0 -595 97 -3 97 -3 3 403 c3 396 3 404 26 453 46 100 121
145 255 153 l77 5 0 103 c0 57 -1 103 -2 103 -2 -1 -31 -5 -66 -10z"/>
<path d="M8835 3190 c-118 -13 -212 -56 -285 -131 -132 -136 -118 -357 29
-450 50 -32 150 -65 331 -108 187 -45 251 -96 253 -200 1 -82 -54 -147 -147
-172 -23 -6 -77 -9 -122 -7 -65 3 -90 10 -127 32 -54 31 -74 57 -97 129 l-17
52 -98 3 -98 3 7 -47 c17 -124 114 -248 232 -293 84 -32 196 -44 297 -31 154
19 276 89 332 191 27 48 30 63 30 139 -1 98 -21 155 -76 208 -60 59 -110 80
-284 122 -202 49 -253 70 -301 122 -35 39 -36 42 -32 109 3 62 7 72 38 105 57
59 84 68 190 69 86 0 99 -3 142 -28 52 -30 92 -88 103 -149 l7 -38 100 0 100
0 -7 48 c-17 119 -91 224 -195 276 -64 32 -89 38 -215 49 -16 2 -57 0 -90 -3z"/>
<path d="M6655 3168 c-3 -7 -4 -276 -3 -598 l3 -585 98 -3 97 -3 0 601 0 600
-95 0 c-67 0 -97 -4 -100 -12z"/>
<path d="M4970 1400 c-41 -41 -12 -120 45 -120 36 0 65 33 65 74 0 59 -68 88
-110 46z"/>
<path d="M7040 970 l0 -430 49 0 50 0 3 223 c3 201 5 225 23 255 55 92 202
107 281 28 44 -44 54 -103 54 -321 l0 -185 45 0 45 0 0 223 c0 125 -5 239 -11
260 -13 48 -70 112 -122 139 -45 23 -152 27 -202 8 -16 -6 -49 -30 -72 -53
l-43 -41 0 162 0 162 -50 0 -50 0 0 -430z"/>
<path d="M4040 940 l0 -400 50 0 50 0 0 175 c0 100 4 175 9 175 5 0 81 -78
168 -174 l158 -175 68 0 69 -1 -187 196 c-102 107 -185 199 -183 204 2 4 75
86 163 181 88 95 168 183 178 196 l18 23 -63 0 -63 -1 -158 -179 c-87 -99
-163 -180 -168 -180 -5 0 -9 77 -9 180 l0 180 -50 0 -50 0 0 -400z"/>
<path d="M5498 1253 l-3 -78 -37 -3 c-37 -3 -38 -4 -38 -43 0 -39 0 -39 40
-39 l40 0 0 -217 c0 -188 2 -223 18 -252 29 -58 61 -74 157 -79 l85 -5 0 42 0
41 -44 0 c-49 0 -96 15 -108 33 -4 7 -8 108 -8 225 l0 212 80 0 80 0 0 40 0
40 -80 0 -80 0 0 80 0 80 -50 0 -49 0 -3 -77z"/>
<path d="M6319 1180 c-101 -17 -193 -96 -225 -193 -25 -74 -23 -196 5 -268 26
-67 105 -149 166 -170 51 -17 179 -18 229 0 49 17 121 83 147 133 10 20 19 40
19 43 0 3 -25 5 -55 5 -42 0 -55 -4 -55 -15 0 -8 -16 -30 -35 -49 -40 -41
-117 -61 -177 -47 -67 16 -101 43 -132 105 -25 49 -30 70 -30 135 1 92 24 151
77 198 86 75 242 50 292 -48 14 -26 20 -29 65 -29 28 0 50 5 50 10 0 23 -34
77 -73 117 -59 62 -166 91 -268 73z"/>
<path d="M8210 1180 c-69 -12 -114 -34 -160 -80 -61 -61 -83 -117 -88 -225 -5
-108 19 -184 76 -247 124 -137 364 -125 472 23 42 58 39 69 -15 69 -40 0 -50
-5 -88 -44 -95 -99 -261 -75 -321 46 -14 29 -26 62 -26 75 l0 23 253 2 252 3
-1 75 c-1 59 -7 86 -27 126 -59 117 -186 177 -327 154z m137 -95 c64 -27 102
-77 116 -152 l7 -33 -205 0 c-224 0 -213 -4 -195 62 13 47 52 93 99 118 44 24
128 26 178 5z"/>
<path d="M9193 1179 c-57 -11 -99 -34 -125 -69 -12 -17 -25 -30 -30 -30 -4 0
-8 20 -8 45 l0 45 -45 0 -45 0 0 -315 0 -315 45 0 45 0 0 185 c0 218 10 277
54 321 79 79 223 65 279 -26 21 -33 22 -49 25 -257 l3 -223 50 0 49 0 0 205
c0 112 -5 227 -11 255 -27 126 -153 205 -286 179z"/>
<path d="M4970 855 l0 -315 45 0 45 0 0 315 0 315 -45 0 -45 0 0 -315z"/>
</g>
</svg>
