<?xml version="1.0" encoding="UTF-8" standalone="no"?>
<svg
   width="821"
   height="455"
   version="1.1"
   id="svg826"
   sodipodi:docname="315949ff623122869508aabcd20d62f0.svg"
   xmlns:inkscape="http://www.inkscape.org/namespaces/inkscape"
   xmlns:sodipodi="http://sodipodi.sourceforge.net/DTD/sodipodi-0.dtd"
   xmlns="http://www.w3.org/2000/svg"
   xmlns:svg="http://www.w3.org/2000/svg">
  <defs
     id="defs830" />
  <sodipodi:namedview
     id="namedview828"
     pagecolor="#ffffff"
     bordercolor="#666666"
     borderopacity="1.0"
     inkscape:pageshadow="2"
     inkscape:pageopacity="0.0"
     inkscape:pagecheckerboard="0" />
  <path
     style="fill:#fff6f4;stroke:none"
     d="M 0,0 V 455 H 821 V 0 Z"
     id="path2" />
  <path
     style="fill:#fdb5b9;stroke:none"
     d="M 81,11 63,28 c 11.9388,9.0965 28.4464,16.4124 35.9452,30 4.4128,7.9955 -0.5307,21.4227 5.3728,27.7222 C 114.375,96.4547 132.024,89.4594 136,106 h 1 c 3.44,-4.653 7.601,-7.1429 9.254,-13.0008 C 154.568,63.5376 121.094,50.5231 100,41.4205 93.1709,38.4737 83.9909,34.3197 79.7423,27.9105 75.8018,21.9661 81.0812,16.8919 81,11 Z"
     id="path4" />
  <path
     style="fill:#d1779a;stroke:none"
     d="m 63,28 1,1 z"
     id="path6" />
  <path
     style="fill:#fdb5b9;stroke:none"
     d="M 62,29 C 53.0339,40.6663 44.5573,58.97 49,74 h 1 C 56.2524,64.551 70.4254,40.1234 62,29 Z"
     id="path8" />
  <path
     style="fill:#e1ab82;stroke:none"
     d="m 63,29 1,1 z"
     id="path10" />
  <path
     style="fill:#b1356b;stroke:none"
     d="m 64,29 c 0,9.6231 -0.8067,18.9718 -4.4529,28 -9.873,24.4458 -36.8281,48.568 -19.3141,77 2.5308,4.108 5.5432,8.341 9.0564,11.671 24.1879,22.926 63.0956,-5.116 89.7106,-8.385 14.856,-1.824 27.958,4.359 37.384,15.718 3.773,4.546 6.484,11.577 11.006,15.268 4.753,3.882 13.075,4.509 18.61,7.59 16.174,9.003 29.448,25.133 31,44.138 h 1 c 0,-21.414 -9.574,-42.927 -30,-52.135 -5.293,-2.386 -11.177,-5.111 -17,-3.865 0.106,-12.798 2.58,-24.638 -2.454,-37 C 180.699,107.727 152.18,91.8482 135,107 134.225,90.3135 113.971,95.5886 104.279,85.7253 98.0651,79.4025 103.144,66.2898 98.8619,58 91.9522,44.6227 75.9179,37.2964 64,29 Z"
     id="path12" />
  <path
     style="fill:#e1ab82;stroke:none"
     d="m 65,29 1,1 -1,-1 m 1,1 1,1 z"
     id="path14" />
  <path
     style="fill:#d1779a;stroke:none"
     d="m 67,31 1,1 -1,-1 m 1,1 1,1 -1,-1 m 1,1 1,1 -1,-1 m 1,1 1,1 z"
     id="path16" />
  <path
     style="fill:#e1ab82;stroke:none"
     d="m 63,38 1,1 z"
     id="path18" />
  <path
     style="fill:#d1779a;stroke:none"
     d="m 75,38 1,1 -1,-1 m -12,1 v 3 h 1 l -1,-3 m 15,0 1,1 -1,-1 m 2,1 1,1 -1,-1 m 2,1 1,1 -1,-1 m 2,1 1,1 z"
     id="path20" />
  <path
     style="fill:#e1ab82;stroke:none"
     d="m 86,43 1,1 z"
     id="path22" />
  <path
     style="fill:#d1779a;stroke:none"
     d="m 87,44 1,1 -1,-1 m 1,1 1,1 -1,-1 m -25.6667,1.6667 0.3334,0.6666 -0.3334,-0.6666 m -1,4 0.3334,0.6666 -0.3334,-0.6666 M 93,50 l 1,1 -1,-1 m 1,1 1,1 -1,-1 m 1,1 1,1 z"
     id="path24" />
  <path
     style="fill:#e1ab82;stroke:none"
     d="m 60,53 1,1 -1,-1 m 36,0 1,1 z"
     id="path26" />
  <path
     style="fill:#d1779a;stroke:none"
     d="m 60,54 1,1 -1,-1 m 37,1 1,1 -1,-1 m -37.6667,1.6667 0.3334,0.6666 -0.3334,-0.6666 M 98,57 l 1,1 z"
     id="path28" />
  <path
     style="fill:#e1ab82;stroke:none"
     d="m 58,58 1,1 -1,-1 m 41,0 1,1 z"
     id="path30" />
  <path
     style="fill:#d1779a;stroke:none"
     d="m 58,59 1,1 -1,-1 m 42.333,1.6667 0.334,0.6666 -0.334,-0.6666 M 57,61 l 1,1 -1,-1 m -1,2 1,1 -1,-1 m 45.333,1.6667 0.334,0.6666 -0.334,-0.6666 M 55,65 l 1,1 z"
     id="path32" />
  <path
     style="fill:#e1ab82;stroke:none"
     d="m 54,66 1,1 z"
     id="path34" />
  <path
     style="fill:#d1779a;stroke:none"
     d="m 54,67 1,1 -1,-1 m -1,1 1,1 -1,-1 m -1,2 1,1 z"
     id="path36" />
  <path
     style="fill:#e1ab82;stroke:none"
     d="m 51,71 1,1 z"
     id="path38" />
  <path
     style="fill:#d1779a;stroke:none"
     d="m 50,73 1,1 -1,-1 m -1,1 1,1 z"
     id="path40" />
  <path
     style="fill:#fdb5b9;stroke:none"
     d="m 48,75 1,1 z"
     id="path42" />
  <path
     style="fill:#d1779a;stroke:none"
     d="m 48,76 1,1 -1,-1 m 53,0 v 6 h 1 l -1,-6 m -54,1 1,1 z"
     id="path44" />
  <path
     style="fill:#e1ab82;stroke:none"
     d="m 46,78 1,1 z"
     id="path46" />
  <path
     style="fill:#d1779a;stroke:none"
     d="m 45,80 1,1 z"
     id="path48" />
  <path
     style="fill:#e1ab82;stroke:none"
     d="m 44,81 1,1 z"
     id="path50" />
  <path
     style="fill:#d1779a;stroke:none"
     d="m 44,82 1,1 -1,-1 m -1,1 1,1 z"
     id="path52" />
  <path
     style="fill:#fdb5b9;stroke:none"
     d="m 42,84 1,1 z"
     id="path54" />
  <path
     style="fill:#d1779a;stroke:none"
     d="m 102,84 1,1 -1,-1 m -60,1 1,1 z"
     id="path56" />
  <path
     style="fill:#e1ab82;stroke:none"
     d="m 103,85 1,1 z"
     id="path58" />
  <path
     style="fill:#fdb5b9;stroke:none"
     d="m 41,86 1,1 z"
     id="path60" />
  <path
     style="fill:#e1ab82;stroke:none"
     d="m 104,86 1,1 z"
     id="path62" />
  <path
     style="fill:#d1779a;stroke:none"
     d="m 41,87 1,1 -1,-1 m 64,0 1,1 z"
     id="path64" />
  <path
     style="fill:#fdb5b9;stroke:none"
     d="m 40,88 1,1 z"
     id="path66" />
  <path
     style="fill:#d1779a;stroke:none"
     d="m 108,88 1,1 -1,-1 m -68,1 1,1 -1,-1 m 70,0 1,1 z"
     id="path68" />
  <path
     style="fill:#e1ab82;stroke:none"
     d="m 111,89 1,1 z"
     id="path70" />
  <path
     style="fill:#fdb5b9;stroke:none"
     d="m 39,90 1,1 z"
     id="path72" />
  <path
     style="fill:#d1779a;stroke:none"
     d="m 112,90 1,1 -1,-1 m -73,1 1,1 -1,-1 m 75,0 1,1 -1,-1 m 1,1 1,1 z"
     id="path74" />
  <path
     style="fill:#e1ab82;stroke:none"
     d="m 38,93 1,1 -1,-1 m 78,0 1,1 -1,-1 m 5.667,0.3333 0.666,0.3334 z"
     id="path76" />
  <path
     style="fill:#d1779a;stroke:none"
     d="m 123,93 1,1 -1,-1 m -85,1 1,1 -1,-1 m 88.667,0.3333 0.666,0.3334 z"
     id="path78" />
  <path
     style="fill:#e1ab82;stroke:none"
     d="m 128,94 1,1 z"
     id="path80" />
  <path
     style="fill:#d1779a;stroke:none"
     d="m 129,95 1,1 z"
     id="path82" />
  <path
     style="fill:#e1ab82;stroke:none"
     d="m 130,95 1,1 -1,-1 m -93,1 1,1 z"
     id="path84" />
  <path
     style="fill:#d1779a;stroke:none"
     d="m 131,96 1,1 -1,-1 m -94,1 1,1 -1,-1 m 95,0 1,1 -1,-1 m 1,1 1,1 z"
     id="path86" />
  <path
     style="fill:#fdb5b9;stroke:none"
     d="m 36,99 1,1 -1,-1 m 109,0 v 1 h 3 z"
     id="path88" />
  <path
     style="fill:#e1ab82;stroke:none"
     d="m 36,100 1,1 z"
     id="path90" />
  <path
     style="fill:#d1779a;stroke:none"
     d="m 134.333,100.667 0.334,0.666 -0.334,-0.666 m 8.334,-0.334 0.666,0.334 -0.666,-0.334 M 150,100 v 1 h 3 z"
     id="path92" />
  <path
     style="fill:#fdb5b9;stroke:none"
     d="m 153.667,100.333 0.666,0.334 z"
     id="path94" />
  <path
     style="fill:#d1779a;stroke:none"
     d="m 36,101 1,1 -1,-1 m 104,0 1,1 -1,-1 m 16,0 1,1 z"
     id="path96" />
  <path
     style="fill:#e1ab82;stroke:none"
     d="m 157,101 1,1 z"
     id="path98" />
  <path
     style="fill:#fdb5b9;stroke:none"
     d="m 158,101 1,1 z"
     id="path100" />
  <path
     style="fill:#d1779a;stroke:none"
     d="m 159.667,102.333 0.666,0.334 z"
     id="path102" />
  <path
     style="fill:#fdb5b9;stroke:none"
     d="m 161,102 1,1 -1,-1 m -126,1 1,1 z"
     id="path104" />
  <path
     style="fill:#e1ab82;stroke:none"
     d="m 135,103 1,1 z"
     id="path106" />
  <path
     style="fill:#d1779a;stroke:none"
     d="m 138,103 1,1 -1,-1 m 24.667,0.333 0.666,0.334 z"
     id="path108" />
  <path
     style="fill:#e1ab82;stroke:none"
     d="m 35,104 1,1 z"
     id="path110" />
  <path
     style="fill:#d1779a;stroke:none"
     d="m 135,104 2,3 -2,-3 m 2,0 1,1 -1,-1 m 28,0 1,1 z"
     id="path112" />
  <path
     style="fill:#fdb5b9;stroke:none"
     d="m 166,104 1,1 z"
     id="path114" />
  <path
     style="fill:#d1779a;stroke:none"
     d="m 35,105 v 3 h 1 l -1,-3 m 132,0 1,1 z"
     id="path116" />
  <path
     style="fill:#fdb5b9;stroke:none"
     d="m 168,105 1,1 z"
     id="path118" />
  <path
     style="fill:#d1779a;stroke:none"
     d="m 169,106 1,1 z"
     id="path120" />
  <path
     style="fill:#fdb5b9;stroke:none"
     d="m 170,106 1,1 z"
     id="path122" />
  <path
     style="fill:#d1779a;stroke:none"
     d="m 171,107 1,1 z"
     id="path124" />
  <path
     style="fill:#fdb5b9;stroke:none"
     d="m 172,107 1,1 z"
     id="path126" />
  <path
     style="fill:#e1ab82;stroke:none"
     d="m 173,108 1,1 z"
     id="path128" />
  <path
     style="fill:#d1779a;stroke:none"
     d="m 174,109 1,1 -1,-1 m 1,1 1,1 z"
     id="path130" />
  <path
     style="fill:#fdb5b9;stroke:none"
     d="m 176,110 1,1 z"
     id="path132" />
  <path
     style="fill:#e1ab82;stroke:none"
     d="m 177,111 1,1 -1,-1 m 1,1 1,1 z"
     id="path134" />
  <path
     style="fill:#fdb5b9;stroke:none"
     d="m 34.3333,113.667 0.3334,0.666 z"
     id="path136" />
  <path
     style="fill:#e1ab82;stroke:none"
     d="m 179,113 1,1 z"
     id="path138" />
  <path
     style="fill:#d1779a;stroke:none"
     d="m 180,114 1,1 -1,-1 m 1,1 1,1 -1,-1 m 1,1 1,1 z"
     id="path140" />
  <path
     style="fill:#e1ab82;stroke:none"
     d="m 183,117 1,1 z"
     id="path142" />
  <path
     style="fill:#fdb5b9;stroke:none"
     d="m 184,118 1,1 z"
     id="path144" />
  <path
     style="fill:#d1779a;stroke:none"
     d="m 184,119 1,1 -1,-1 m -148.6667,1.667 0.3334,0.666 -0.3334,-0.666 M 185,120 l 1,1 z"
     id="path146" />
  <path
     style="fill:#fdb5b9;stroke:none"
     d="m 186,121 1,1 z"
     id="path148" />
  <path
     style="fill:#e1ab82;stroke:none"
     d="m 35,122 1,1 z"
     id="path150" />
  <path
     style="fill:#d1779a;stroke:none"
     d="m 186,122 1,1 z"
     id="path152" />
  <path
     style="fill:#fdb5b9;stroke:none"
     d="m 35,123 1,1 -1,-1 m 152,0 1,1 z"
     id="path154" />
  <path
     style="fill:#d1779a;stroke:none"
     d="m 187,124 1,1 -1,-1 m -150.6667,1.667 0.3334,0.666 z"
     id="path156" />
  <path
     style="fill:#fdb5b9;stroke:none"
     d="m 188,125 1,1 z"
     id="path158" />
  <path
     style="fill:#d1779a;stroke:none"
     d="m 188,126 1,1 z"
     id="path160" />
  <path
     style="fill:#fdb5b9;stroke:none"
     d="m 345,126.439 c -7.353,1.158 -13.01,3.949 -15.211,11.561 -5.455,18.867 -0.789,45.352 -0.789,65 0,7.955 -1.357,17.857 3.228,24.895 3.008,4.619 8.59,5.955 13.772,6.09 12.876,0.337 27.249,1.537 40,-0.285 37.438,-5.349 49.135,-57.241 30.11,-85.699 C 401.494,126.139 369.127,122.64 345,126.439 m 206,0.029 c -8.549,1.602 -13.22,8.041 -13.907,16.532 -1.223,15.135 -0.093,30.813 -0.093,46 0,11.09 -1.173,23.179 1.765,34 2.526,9.306 11.374,12.27 20.235,10.671 11.053,-1.996 12.985,-13.2 13,-22.671 v -52 c 0,-7.685 1.667,-17.727 -1.344,-24.96 -2.962,-7.114 -12.819,-8.854 -19.656,-7.572 M 36,127 l 1,1 -1,-1 m 153,1 1,1 z"
     id="path162" />
  <path
     style="fill:#d1779a;stroke:none"
     d="m 37,129 1,1 -1,-1 m 152,0 1,1 z"
     id="path164" />
  <path
     style="fill:#fdb5b9;stroke:none"
     d="m 37,130 c -7.1386,12.277 -11.8078,27.726 -9.561,42 0.8597,5.461 7.5368,14.875 6.8102,19.576 C 33.3268,197.544 25.5398,204.722 23.3449,211 16.3315,231.061 16.4615,252.899 23,273 h 1 c -1.7693,-13.701 -4.3707,-25.519 0.9267,-39 2.2893,-5.826 6.2705,-10.502 9.0733,-16 20.5221,43.109 64.8717,45.848 106,34.14 11.135,-3.169 21.876,-7.68 32,-13.279 3.111,-1.721 7.978,-3.125 9.972,-6.251 2.183,-3.422 1.327,-10.736 0.843,-14.61 C 181.099,204.269 167.933,200.521 156,201.039 128.464,202.236 103.062,214.967 75,212.91 63.0819,212.036 55.5852,204.057 45,201.328 38.846,199.741 31.9409,208.094 30,213 h -1 c 0.6841,-7.786 4.8386,-13.379 10,-19 v -1 c -10.9597,-15.529 -6.628,-34.84 0,-51 h 1 c 2.0454,46.915 56.7365,18.999 85,25.9 7.215,1.761 14.441,5.325 19.907,10.401 3.06,2.842 5.378,9.281 10.136,9.225 7.554,-0.089 15.555,-5.287 22.957,-6.857 14.956,-3.172 32.946,4.058 39.481,18.331 5.206,11.368 1.694,24.424 -3.74,35 -11.501,22.382 -32.14,42.8 -54.741,53.742 -9.082,4.396 -23.211,5.24 -30.786,11.757 -8.333,7.169 -3.901,31.405 8.638,31.749 7.677,0.211 -5.609,-14.429 -6.852,-16.248 7.345,-1.23 1.954,-7.187 1,-12 9.65,4.823 9.555,-3.672 17.324,-3.504 2.414,0.052 4.943,4.057 6.676,5.504 l 1,-8 8,13 1,-3 h 2 c 0.541,2.611 6.898,15.947 8.578,6.852 C 176.907,306.656 162.524,290.315 178,293 l 1,-7 4,8 c 2.311,1.14 5.166,4.389 7.81,4.365 3.425,-0.031 5.564,-13.877 8.404,-16.789 2.954,-3.029 11.862,-13.293 15.786,-8.576 h 1 c 1.104,-6.786 9.309,-8.737 13.996,-13.093 C 241.005,249.676 246.56,236.054 240,222 h -1 l -1,8 h -1 c 1.782,-21.356 -9.971,-41.409 -28,-52.385 -6.238,-3.798 -13.749,-4.407 -19.79,-7.929 -4.272,-2.491 -6.701,-8.806 -9.588,-12.686 -6.796,-9.132 -14.923,-17.009 -26.622,-18.7 -14.43,-2.086 -29.505,1.048 -43,6.125 -16.1794,6.087 -34.778,15.137 -52,6.942 C 47.8934,146.557 43.9652,137.988 37,130 Z"
     id="path166" />
  <path
     style="fill:#d1779a;stroke:none"
     d="m 38,131 1,1 z"
     id="path168" />
  <path
     style="fill:#fdb5b9;stroke:none"
     d="m 190,131 1,1 z"
     id="path170" />
  <path
     style="fill:#d1779a;stroke:none"
     d="m 39,132 1,1 -1,-1 m 151,0 1,1 z"
     id="path172" />
  <path
     style="fill:#e1ab82;stroke:none"
     d="m 39,133 1,1 z"
     id="path174" />
  <path
     style="fill:#d1779a;stroke:none"
     d="m 40,134 1,1 z"
     id="path176" />
  <path
     style="fill:#fdb5b9;stroke:none"
     d="m 191,134 1,1 z"
     id="path178" />
  <path
     style="fill:#e1ab82;stroke:none"
     d="m 191,135 1,1 z"
     id="path180" />
  <path
     style="fill:#d1779a;stroke:none"
     d="m 41,136 1,1 -1,-1 m 150.333,0.667 0.334,0.666 -0.334,-0.666 M 42,137 l 1,1 -1,-1 m 95,0 v 1 h 3 z"
     id="path182" />
  <path
     style="fill:#e1ab82;stroke:none"
     d="m 140.667,137.333 0.666,0.334 -0.666,-0.334 M 143,137 v 1 h 3 z"
     id="path184" />
  <path
     style="fill:#d1779a;stroke:none"
     d="m 146,137 v 1 h 5 l -5,-1 m -103,1 1,1 -1,-1 m 88,0 1,1 z"
     id="path186" />
  <path
     style="fill:#e1ab82;stroke:none"
     d="m 132,138 1,1 -1,-1 m 22,0 1,1 z"
     id="path188" />
  <path
     style="fill:#d1779a;stroke:none"
     d="m 155,138 1,1 z"
     id="path190" />
  <path
     style="fill:#e1ab82;stroke:none"
     d="m 43,139 1,1 z"
     id="path192" />
  <path
     style="fill:#d1779a;stroke:none"
     d="m 126,139 1,1 -1,-1 m 32.667,0.333 0.666,0.334 -0.666,-0.334 M 44,140 l 1,1 -1,-1 m 78,0 1,1 -1,-1 m 39,0 1,1 z"
     id="path194" />
  <path
     style="fill:#fdb5b9;stroke:none"
     d="m 192.333,140.667 0.334,0.666 z"
     id="path196" />
  <path
     style="fill:#d1779a;stroke:none"
     d="m 45,141 1,1 -1,-1 m 73,0 1,1 z"
     id="path198" />
  <path
     style="fill:#e1ab82;stroke:none"
     d="m 119,141 1,1 z"
     id="path200" />
  <path
     style="fill:#d1779a;stroke:none"
     d="m 163,141 1,1 -1,-1 m -124,1 1,1 -1,-1 m 7,0 1,1 -1,-1 m 69,0 1,1 -1,-1 m 50,0 1,1 z"
     id="path202" />
  <path
     style="fill:#e1ab82;stroke:none"
     d="m 192,142 v 10 h 1 l -1,-10 m -154,1 1,1 z"
     id="path204" />
  <path
     style="fill:#b1356b;stroke:none"
     d="m 39,143 c -5.5724,10.575 -7.4208,23.184 -5.561,35 0.7488,4.757 4.2048,10.324 4.0193,15 -0.2365,5.963 -7.1055,12.532 -8.4583,19 h 1 c 2.7987,-3.97 7.6284,-10.366 13,-10.636 4.7124,-0.237 9.8031,4.928 14,6.76 7.1367,3.116 15.2761,4.258 23,4.786 26.32,1.803 50.987,-11.598 77,-11.906 16.399,-0.194 28.882,9.16 26.891,26.992 -0.626,5.606 -5.431,7.668 -9.891,10.143 -9.43,5.233 -19.669,9.994 -30,13.14 C 105.171,263.104 53.6824,264.637 35,220 h -2 c -13.9526,19.65 -16.9718,53.734 2.0903,71.816 8.7351,8.285 20.6563,9.166 29.9097,15.697 5.768,4.071 12.4466,22.668 19.9414,20.914 C 95.8093,325.884 82.1438,311.212 79,308 c 12.3906,2.866 18.4949,10.268 22.934,22 1.487,3.927 1.585,10.288 4.769,13.258 5.01,4.672 11.278,-0.467 10.738,-6.258 -0.863,-9.263 -7.881,-18.195 -12.441,-26 16.353,-5.902 16.579,21.283 32,23 -5.885,-10.276 -20.66,-19.607 -10.351,-32.895 4.869,-6.276 15.265,-6.997 22.351,-9.449 11.758,-4.068 23.786,-10.279 33,-18.749 C 197.242,258.896 213.578,241.791 218.497,221 223.55,199.64 208.123,178.558 185,180.184 173.476,180.995 162.881,185.46 152,189 141.404,164.447 109.43,164.812 87,168.275 76.9536,169.826 66.9949,173.388 57,169.532 43.7452,164.418 43.9378,153.995 39,143 Z"
     id="path206" />
  <path
     style="fill:#d1779a;stroke:none"
     d="m 47.3333,143.667 0.3334,0.666 -0.3334,-0.666 M 112,143 l 1,1 z"
     id="path208" />
  <path
     style="fill:#e1ab82;stroke:none"
     d="m 166,143 1,1 z"
     id="path210" />
  <path
     style="fill:#d1779a;stroke:none"
     d="m 109,144 1,1 -1,-1 m -72,1 1,1 -1,-1 m 11,0 1,1 -1,-1 m 59,0 1,1 z"
     id="path212" />
  <path
     style="fill:#e1ab82;stroke:none"
     d="m 49,146 1,1 z"
     id="path214" />
  <path
     style="fill:#d1779a;stroke:none"
     d="m 104,146 1,1 z"
     id="path216" />
  <path
     style="fill:#e1ab82;stroke:none"
     d="m 36,147 1,1 -1,-1 m 4,0 1,1 z"
     id="path218" />
  <path
     style="fill:#d1779a;stroke:none"
     d="m 51,147 1,1 -1,-1 m 51,0 1,1 -1,-1 m 69,0 1,1 -1,-1 m -135,1 1,1 -1,-1 m 4,0 1,1 -1,-1 m 12,0 1,1 -1,-1 m 47,0 1,1 z"
     id="path220" />
  <path
     style="fill:#e1ab82;stroke:none"
     d="m 100,148 1,1 z"
     id="path222" />
  <path
     style="fill:#d1779a;stroke:none"
     d="m 172,148 1,1 -1,-1 m -118,1 1,1 -1,-1 m 43,0 1,1 -1,-1 m 76,0 1,1 z"
     id="path224" />
  <path
     style="fill:#fff6f4;stroke:none"
     d="m 366,149 v 63 c 28.348,-0.253 28.847,-62.385 0,-63 z"
     id="path226" />
  <path
     style="fill:#d1779a;stroke:none"
     d="m 35.3333,150.667 0.3334,0.666 -0.3334,-0.666 M 56,150 l 1,1 -1,-1 m 38,0 1,1 -1,-1 m 80,0 1,1 z"
     id="path228" />
  <path
     style="fill:#e1ab82;stroke:none"
     d="m 41,151 1,1 -1,-1 m 16,0 1,1 z"
     id="path230" />
  <path
     style="fill:#d1779a;stroke:none"
     d="m 58,151 1,1 -1,-1 m 33,0 1,1 -1,-1 m 84,0 1,1 -1,-1 m -134,1 1,1 -1,-1 m 19,0 1,1 -1,-1 m 27,0 1,1 z"
     id="path232" />
  <path
     style="fill:#e1ab82;stroke:none"
     d="m 88,152 1,1 z"
     id="path234" />
  <path
     style="fill:#fdb5b9;stroke:none"
     d="m 192.333,152.667 0.334,0.666 z"
     id="path236" />
  <path
     style="fill:#d1779a;stroke:none"
     d="m 34.3333,153.667 0.3334,0.666 z"
     id="path238" />
  <path
     style="fill:#e1ab82;stroke:none"
     d="m 63,153 1,1 z"
     id="path240" />
  <path
     style="fill:#d1779a;stroke:none"
     d="m 64.6667,153.333 0.6666,0.334 -0.6666,-0.334 m 18,0 0.6666,0.334 z"
     id="path242" />
  <path
     style="fill:#e1ab82;stroke:none"
     d="m 42,154 1,1 -1,-1 m 30,0 v 1 h 3 z"
     id="path244" />
  <path
     style="fill:#d1779a;stroke:none"
     d="m 75,154 1,1 z"
     id="path246" />
  <path
     style="fill:#e1ab82;stroke:none"
     d="m 76,154 1,1 -1,-1 m 101,0 1,1 z"
     id="path248" />
  <path
     style="fill:#d1779a;stroke:none"
     d="m 42,155 1,1 -1,-1 m 136,0 1,1 z"
     id="path250" />
  <path
     style="fill:#e1ab82;stroke:none"
     d="m 33,156 1,1 z"
     id="path252" />
  <path
     style="fill:#d1779a;stroke:none"
     d="m 179,156 1,1 -1,-1 m 12,0 v 5 h 1 l -1,-5 m -157.6667,1.667 0.3334,0.666 -0.3334,-0.666 M 43,157 l 1,1 z"
     id="path254" />
  <path
     style="fill:#e1ab82;stroke:none"
     d="m 180,158 1,1 z"
     id="path256" />
  <path
     style="fill:#fdb5b9;stroke:none"
     d="m 472,158.439 c -29.416,4.63 -47.311,39.396 -25.699,63.521 10.786,12.04 29.366,15.016 44.699,12.601 29.568,-4.656 45.369,-39.89 24.535,-63.471 C 505.167,159.355 486.876,156.097 472,158.439 m 148,0 c -28.099,4.423 -46.465,35.635 -28.073,60.557 12.088,16.378 38.069,20.132 56.073,12.539 5.383,-2.269 27.985,-20.574 14.891,-25.777 -6.063,-2.409 -16.352,4.448 -22.891,5.071 -18.327,1.745 -26.587,-18.169 -17.914,-32.824 1.61,-2.722 7.158,-8.249 9.271,-2.852 2.687,6.861 -5.043,14.888 1.077,21.568 9.139,9.978 28.661,-0.283 32.098,-10.721 8.425,-25.591 -27.4,-30.258 -44.532,-27.561 M 714,200 c 10.623,0 24.062,2.188 34,-2.214 12.785,-5.662 14.153,-21.972 4.671,-31.457 C 745.6,159.255 734.47,158.004 725,158 c -28.146,-0.011 -53.66,20.467 -44.56,51 6.846,22.97 35.631,30.262 56.56,24.087 8.552,-2.523 25.073,-12.086 23.381,-23.068 -1.275,-8.28 -10.853,-3.244 -15.381,-1.768 -11.753,3.831 -24.941,4.376 -31,-8.251 z"
     id="path258" />
  <path
     style="fill:#d1779a;stroke:none"
     d="m 44,159 1,1 -1,-1 m 137,0 1,1 -1,-1 m -136,2 1,1 z"
     id="path260" />
  <path
     style="fill:#e1ab82;stroke:none"
     d="m 191.333,161.667 0.334,0.666 z"
     id="path262" />
  <path
     style="fill:#d1779a;stroke:none"
     d="m 46,162 1,1 -1,-1 m 137,0 1,1 z"
     id="path264" />
  <path
     style="fill:#fdb5b9;stroke:none"
     d="m 192,162 1,1 z"
     id="path266" />
  <path
     style="fill:#d1779a;stroke:none"
     d="m 32,163 v 9 h 1 l -1,-9 m 15,0 1,1 -1,-1 m 144,0 1,1 -1,-1 m 4,0 1,1 z"
     id="path268" />
  <path
     style="fill:#e1ab82;stroke:none"
     d="m 196,163 1,1 z"
     id="path270" />
  <path
     style="fill:#fdb5b9;stroke:none"
     d="m 197,163 1,1 z"
     id="path272" />
  <path
     style="fill:#d1779a;stroke:none"
     d="m 48,164 1,1 -1,-1 m 136,0 1,1 -1,-1 m 15,0 1,1 z"
     id="path274" />
  <path
     style="fill:#fdb5b9;stroke:none"
     d="m 200,164 1,1 z"
     id="path276" />
  <path
     style="fill:#d1779a;stroke:none"
     d="m 49,165 1,1 -1,-1 m 153,0 1,1 z"
     id="path278" />
  <path
     style="fill:#fdb5b9;stroke:none"
     d="m 203,165 1,1 z"
     id="path280" />
  <path
     style="fill:#d1779a;stroke:none"
     d="m 50,166 1,1 z"
     id="path282" />
  <path
     style="fill:#e1ab82;stroke:none"
     d="m 96,166 1,1 z"
     id="path284" />
  <path
     style="fill:#d1779a;stroke:none"
     d="m 97,166 v 1 h 19 z"
     id="path286" />
  <path
     style="fill:#e1ab82;stroke:none"
     d="m 116,166 1,1 z"
     id="path288" />
  <path
     style="fill:#d1779a;stroke:none"
     d="m 204.667,166.333 0.666,0.334 z"
     id="path290" />
  <path
     style="fill:#fdb5b9;stroke:none"
     d="m 206,166 1,1 z"
     id="path292" />
  <path
     style="fill:#d1779a;stroke:none"
     d="m 52,167 1,1 z"
     id="path294" />
  <path
     style="fill:#e1ab82;stroke:none"
     d="m 88,167 1,1 z"
     id="path296" />
  <path
     style="fill:#d1779a;stroke:none"
     d="m 89,167 v 1 h 4 l -4,-1 m 32.667,0.333 0.666,0.334 z"
     id="path298" />
  <path
     style="fill:#e1ab82;stroke:none"
     d="m 123,167 1,1 z"
     id="path300" />
  <path
     style="fill:#d1779a;stroke:none"
     d="m 207,167 1,1 z"
     id="path302" />
  <path
     style="fill:#fdb5b9;stroke:none"
     d="m 208,167 1,1 z"
     id="path304" />
  <path
     style="fill:#d1779a;stroke:none"
     d="m 54,168 1,1 -1,-1 m 30.6667,0.333 0.6666,0.334 -0.6666,-0.334 M 126,168 l 1,1 z"
     id="path306" />
  <path
     style="fill:#e1ab82;stroke:none"
     d="m 127,168 1,1 z"
     id="path308" />
  <path
     style="fill:#d1779a;stroke:none"
     d="m 209,168 1,1 z"
     id="path310" />
  <path
     style="fill:#fdb5b9;stroke:none"
     d="m 210,168 1,1 z"
     id="path312" />
  <path
     style="fill:#d1779a;stroke:none"
     d="m 56,169 1,1 z"
     id="path314" />
  <path
     style="fill:#e1ab82;stroke:none"
     d="m 57,169 1,1 z"
     id="path316" />
  <path
     style="fill:#d1779a;stroke:none"
     d="m 79.6667,169.333 0.6666,0.334 -0.6666,-0.334 M 129,169 l 1,1 z"
     id="path318" />
  <path
     style="fill:#e1ab82;stroke:none"
     d="m 130,169 1,1 z"
     id="path320" />
  <path
     style="fill:#d1779a;stroke:none"
     d="m 187.667,169.333 0.666,0.334 -0.666,-0.334 M 211,169 l 1,1 z"
     id="path322" />
  <path
     style="fill:#fdb5b9;stroke:none"
     d="m 212,169 1,1 z"
     id="path324" />
  <path
     style="fill:#d1779a;stroke:none"
     d="m 59.6667,170.333 0.6666,0.334 z"
     id="path326" />
  <path
     style="fill:#e1ab82;stroke:none"
     d="m 73,170 1,1 z"
     id="path328" />
  <path
     style="fill:#d1779a;stroke:none"
     d="m 74.6667,170.333 0.6666,0.334 -0.6666,-0.334 M 132,170 l 1,1 z"
     id="path330" />
  <path
     style="fill:#e1ab82;stroke:none"
     d="m 190,170 1,1 z"
     id="path332" />
  <path
     style="fill:#d1779a;stroke:none"
     d="m 191.667,170.333 0.666,0.334 -0.666,-0.334 M 213,170 l 1,1 -1,-1 m -148,1 v 1 h 4 l -4,-1 m 69,0 1,1 z"
     id="path334" />
  <path
     style="fill:#e1ab82;stroke:none"
     d="m 135,171 1,1 z"
     id="path336" />
  <path
     style="fill:#d1779a;stroke:none"
     d="m 195.667,171.333 0.666,0.334 -0.666,-0.334 M 214,171 l 1,1 z"
     id="path338" />
  <path
     style="fill:#fdb5b9;stroke:none"
     d="m 215,171 1,1 z"
     id="path340" />
  <path
     style="fill:#e1ab82;stroke:none"
     d="m 32,172 1,1 z"
     id="path342" />
  <path
     style="fill:#d1779a;stroke:none"
     d="m 136,172 1,1 z"
     id="path344" />
  <path
     style="fill:#e1ab82;stroke:none"
     d="m 198,172 1,1 z"
     id="path346" />
  <path
     style="fill:#d1779a;stroke:none"
     d="m 199,172 1,1 z"
     id="path348" />
  <path
     style="fill:#e1ab82;stroke:none"
     d="m 216,172 1,1 z"
     id="path350" />
  <path
     style="fill:#fff6f4;stroke:none"
     d="m 713,190 c 3.58,0 9.476,1.099 12.566,-1.028 3.659,-2.518 3.75,-13.303 0,-15.788 C 717.047,167.537 713.234,184.89 713,190 Z"
     id="path352" />
  <path
     style="fill:#d1779a;stroke:none"
     d="m 138,173 1,1 -1,-1 m 63,0 1,1 -1,-1 m 16,0 1,1 z"
     id="path354" />
  <path
     style="fill:#e1ab82;stroke:none"
     d="m 140,174 1,1 z"
     id="path356" />
  <path
     style="fill:#d1779a;stroke:none"
     d="m 203,174 1,1 -1,-1 m 15,0 1,1 z"
     id="path358" />
  <path
     style="fill:#fdb5b9;stroke:none"
     d="m 219,174 1,1 z"
     id="path360" />
  <path
     style="fill:#d1779a;stroke:none"
     d="m 141,175 1,1 -1,-1 m 64,0 1,1 z"
     id="path362" />
  <path
     style="fill:#fdb5b9;stroke:none"
     d="m 220,175 1,1 z"
     id="path364" />
  <path
     style="fill:#d1779a;stroke:none"
     d="m 142,176 1,1 -1,-1 m 65,0 1,1 z"
     id="path366" />
  <path
     style="fill:#fdb5b9;stroke:none"
     d="m 221,176 1,1 z"
     id="path368" />
  <path
     style="fill:#fff6f4;stroke:none"
     d="m 480.101,176.971 c -9.624,2.165 -7.779,24.376 -5.941,31.029 0.951,3.444 3.179,9.1 7.8,8.168 9.799,-1.975 7.456,-24.531 5.8,-31.168 -0.858,-3.439 -3.056,-9.065 -7.659,-8.029 z"
     id="path370" />
  <path
     style="fill:#e1ab82;stroke:none"
     d="m 144,177 1,1 z"
     id="path372" />
  <path
     style="fill:#d1779a;stroke:none"
     d="m 208,177 1,1 z"
     id="path374" />
  <path
     style="fill:#fdb5b9;stroke:none"
     d="m 222,177 1,1 z"
     id="path376" />
  <path
     style="fill:#d1779a;stroke:none"
     d="m 33.3333,178.667 0.3334,0.666 -0.3334,-0.666 M 145,178 l 1,1 -1,-1 m 65,0 1,1 z"
     id="path378" />
  <path
     style="fill:#fdb5b9;stroke:none"
     d="m 223,178 1,1 z"
     id="path380" />
  <path
     style="fill:#e1ab82;stroke:none"
     d="m 146,179 1,1 z"
     id="path382" />
  <path
     style="fill:#d1779a;stroke:none"
     d="m 212,179 1,1 z"
     id="path384" />
  <path
     style="fill:#fdb5b9;stroke:none"
     d="m 224,179 1,1 z"
     id="path386" />
  <path
     style="fill:#e1ab82;stroke:none"
     d="m 147,180 1,1 -1,-1 m 31,0 1,1 z"
     id="path388" />
  <path
     style="fill:#d1779a;stroke:none"
     d="m 179,180 v 1 h 4 l -4,-1 m 11,0 1,1 z"
     id="path390" />
  <path
     style="fill:#e1ab82;stroke:none"
     d="m 191,180 1,1 z"
     id="path392" />
  <path
     style="fill:#d1779a;stroke:none"
     d="m 213,180 1,1 -1,-1 m -39,1 1,1 -1,-1 m 20.667,0.333 0.666,0.334 z"
     id="path394" />
  <path
     style="fill:#e1ab82;stroke:none"
     d="m 196,181 1,1 -1,-1 m 18,0 1,1 z"
     id="path396" />
  <path
     style="fill:#d1779a;stroke:none"
     d="m 215,181 1,1 -1,-1 m 10,0 1,1 -1,-1 m -77,1 1,1 -1,-1 m 23,0 1,1 -1,-1 m 27,0 1,1 -1,-1 m 18,0 1,1 -1,-1 m 10,0 1,1 -1,-1 m -192,1 1,1 -1,-1 m 115,0 1,1 -1,-1 m 19,0 1,1 -1,-1 m 33,0 1,1 -1,-1 m 16,0 1,1 z"
     id="path398" />
  <path
     style="fill:#fdb5b9;stroke:none"
     d="m 227,183 1,1 z"
     id="path400" />
  <path
     style="fill:#e1ab82;stroke:none"
     d="m 34,184 1,1 z"
     id="path402" />
  <path
     style="fill:#d1779a;stroke:none"
     d="m 165,184 1,1 -1,-1 m 38,0 1,1 -1,-1 m 15,0 1,1 z"
     id="path404" />
  <path
     style="fill:#fdb5b9;stroke:none"
     d="m 228,184 1,1 z"
     id="path406" />
  <path
     style="fill:#d1779a;stroke:none"
     d="m 150,185 1,1 -1,-1 m 12,0 1,1 -1,-1 m 43,0 1,1 -1,-1 m 14,0 1,1 -1,-1 m 9,0 1,1 -1,-1 m -193,1 1,1 -1,-1 m 124,0 1,1 z"
     id="path408" />
  <path
     style="fill:#e1ab82;stroke:none"
     d="m 207,186 1,1 z"
     id="path410" />
  <path
     style="fill:#d1779a;stroke:none"
     d="m 220,186 1,1 z"
     id="path412" />
  <path
     style="fill:#fdb5b9;stroke:none"
     d="m 229,186 1,1 z"
     id="path414" />
  <path
     style="fill:#e1ab82;stroke:none"
     d="m 35,187 1,1 z"
     id="path416" />
  <path
     style="fill:#d1779a;stroke:none"
     d="m 151,187 1,1 -1,-1 m 5,0 1,1 -1,-1 m 52,0 1,1 -1,-1 m 13,0 1,1 -1,-1 m 8,0 1,1 -1,-1 m -76.333,1.333 0.666,0.334 -0.666,-0.334 M 209,188 l 1,1 -1,-1 m 13,0 1,1 z"
     id="path418" />
  <path
     style="fill:#e1ab82;stroke:none"
     d="m 230,188 1,1 z"
     id="path420" />
  <path
     style="fill:#d1779a;stroke:none"
     d="m 36,189 1,1 -1,-1 m 21,0 1,1 -1,-1 m 153,0 1,1 -1,-1 m 13,0 1,1 -1,-1 m 1,1 1,1 -1,-1 m 7,0 1,1 z"
     id="path422" />
  <path
     style="fill:#e1ab82;stroke:none"
     d="m 37,191 1,1 z"
     id="path424" />
  <path
     style="fill:#d1779a;stroke:none"
     d="m 38,192 1,1 -1,-1 m 175,0 1,1 -1,-1 m 19,0 1,1 -1,-1 m -18,1 1,1 z"
     id="path426" />
  <path
     style="fill:#e1ab82;stroke:none"
     d="m 226,193 1,1 z"
     id="path428" />
  <path
     style="fill:#d1779a;stroke:none"
     d="m 227,194 1,1 z"
     id="path430" />
  <path
     style="fill:#e1ab82;stroke:none"
     d="m 233,194 1,1 z"
     id="path432" />
  <path
     style="fill:#d1779a;stroke:none"
     d="m 37,195 1,1 -1,-1 m 178,0 1,1 -1,-1 m 18,0 1,1 -1,-1 m -197,1 1,1 z"
     id="path434" />
  <path
     style="fill:#e1ab82;stroke:none"
     d="m 216,196 1,1 z"
     id="path436" />
  <path
     style="fill:#d1779a;stroke:none"
     d="m 228,196 1,1 z"
     id="path438" />
  <path
     style="fill:#e1ab82;stroke:none"
     d="m 234,196 1,1 z"
     id="path440" />
  <path
     style="fill:#d1779a;stroke:none"
     d="m 35,197 1,1 -1,-1 m 181,0 1,1 -1,-1 m 13,0 1,1 -1,-1 m 5,0 1,1 z"
     id="path442" />
  <path
     style="fill:#e1ab82;stroke:none"
     d="m 217,198 1,1 -1,-1 m 12,0 1,1 z"
     id="path444" />
  <path
     style="fill:#d1779a;stroke:none"
     d="m 217,199 1,1 -1,-1 m 13,0 1,1 z"
     id="path446" />
  <path
     style="fill:#fdb5b9;stroke:none"
     d="m 235,199 1,1 z"
     id="path448" />
  <path
     style="fill:#d1779a;stroke:none"
     d="m 33,200 1,1 -1,-1 m 10,0 1,1 -1,-1 m 192,0 1,1 z"
     id="path450" />
  <path
     style="fill:#e1ab82;stroke:none"
     d="m 32,201 1,1 z"
     id="path452" />
  <path
     style="fill:#d1779a;stroke:none"
     d="m 40,201 1,1 -1,-1 m 110.667,0.333 0.666,0.334 z"
     id="path454" />
  <path
     style="fill:#e1ab82;stroke:none"
     d="m 165,201 1,1 z"
     id="path456" />
  <path
     style="fill:#d1779a;stroke:none"
     d="m 166.667,201.333 0.666,0.334 -0.666,-0.334 M 218,201 l 1,1 -1,-1 m 13,0 1,1 z"
     id="path458" />
  <path
     style="fill:#e1ab82;stroke:none"
     d="m 39,202 1,1 z"
     id="path460" />
  <path
     style="fill:#d1779a;stroke:none"
     d="m 47,202 1,1 -1,-1 m 97.667,0.333 0.666,0.334 -0.666,-0.334 M 170,202 l 1,1 z"
     id="path462" />
  <path
     style="fill:#fdb5b9;stroke:none"
     d="m 236,202 1,1 z"
     id="path464" />
  <path
     style="fill:#d1779a;stroke:none"
     d="m 31,203 1,1 -1,-1 m 6,0 1,1 -1,-1 m 11,0 1,1 -1,-1 m 90.667,0.333 0.666,0.334 -0.666,-0.334 M 173,203 l 1,1 -1,-1 m 59,0 1,1 -1,-1 m 4.333,0.667 0.334,0.666 -0.334,-0.666 M 36,204 l 1,1 -1,-1 m 14,0 1,1 -1,-1 m 84,0 1,1 z"
     id="path466" />
  <path
     style="fill:#e1ab82;stroke:none"
     d="m 135,204 1,1 -1,-1 m 39,0 1,1 -1,-1 m 45,0 1,1 z"
     id="path468" />
  <path
     style="fill:#d1779a;stroke:none"
     d="m 30,205 1,1 z"
     id="path470" />
  <path
     style="fill:#e1ab82;stroke:none"
     d="m 35,205 1,1 z"
     id="path472" />
  <path
     style="fill:#d1779a;stroke:none"
     d="m 51,205 1,1 -1,-1 m 78.667,0.333 0.666,0.334 -0.666,-0.334 M 176,205 l 1,1 -1,-1 m 43.333,0.667 0.334,0.666 -0.334,-0.666 M 233,205 l 1,1 z"
     id="path474" />
  <path
     style="fill:#e1ab82;stroke:none"
     d="m 34,206 1,1 z"
     id="path476" />
  <path
     style="fill:#d1779a;stroke:none"
     d="m 53,206 1,1 -1,-1 m 72,0 1,1 z"
     id="path478" />
  <path
     style="fill:#e1ab82;stroke:none"
     d="m 126,206 1,1 z"
     id="path480" />
  <path
     style="fill:#d1779a;stroke:none"
     d="m 177,206 1,1 z"
     id="path482" />
  <path
     style="fill:#fdb5b9;stroke:none"
     d="m 237,206 1,1 z"
     id="path484" />
  <path
     style="fill:#d1779a;stroke:none"
     d="m 55,207 1,1 -1,-1 m 65.667,0.333 0.666,0.334 -0.666,-0.334 M 178,207 l 1,1 z"
     id="path486" />
  <path
     style="fill:#e1ab82;stroke:none"
     d="m 237,207 1,1 z"
     id="path488" />
  <path
     style="fill:#d1779a;stroke:none"
     d="m 29.3333,208.667 0.3334,0.666 -0.3334,-0.666 M 57,208 l 1,1 -1,-1 m 59,0 1,1 z"
     id="path490" />
  <path
     style="fill:#e1ab82;stroke:none"
     d="m 117,208 1,1 z"
     id="path492" />
  <path
     style="fill:#d1779a;stroke:none"
     d="m 179,208 1,1 -1,-1 m 55.333,0.667 0.334,0.666 -0.334,-0.666 M 237,208 l 1,1 -1,-1 m -206,1 1,1 -1,-1 m 28.6667,0.333 0.6666,0.334 -0.6666,-0.334 m 52.0003,0 0.666,0.334 -0.666,-0.334 M 30,210 l 1,1 -1,-1 m 33,0 1,1 -1,-1 m 44,0 1,1 z"
     id="path494" />
  <path
     style="fill:#e1ab82;stroke:none"
     d="m 108,210 1,1 z"
     id="path496" />
  <path
     style="fill:#d1779a;stroke:none"
     d="m 180,210 1,1 -1,-1 m -112.3333,1.333 0.6666,0.334 -0.6666,-0.334 M 100,211 v 1 h 3 l -3,-1 m 135.333,0.667 0.334,0.666 z"
     id="path498" />
  <path
     style="fill:#fdb5b9;stroke:none"
     d="m 238,211 v 3 h 1 z"
     id="path500" />
  <path
     style="fill:#e1ab82;stroke:none"
     d="m 29,212 1,1 -1,-1 m 42.6667,0.333 0.6666,0.334 z"
     id="path502" />
  <path
     style="fill:#d1779a;stroke:none"
     d="m 73,212 v 1 h 4 l -4,-1 m 18,0 v 1 h 4 z"
     id="path504" />
  <path
     style="fill:#e1ab82;stroke:none"
     d="m 95,212 1,1 z"
     id="path506" />
  <path
     style="fill:#d1779a;stroke:none"
     d="m 181,212 1,1 z"
     id="path508" />
  <path
     style="fill:#e1ab82;stroke:none"
     d="m 28,214 1,1 -1,-1 m 210.333,0.667 0.334,0.666 z"
     id="path510" />
  <path
     style="fill:#d1779a;stroke:none"
     d="m 182,215 1,1 -1,-1 m 37,0 v 3 h 1 l -1,-3 m 17.333,0.667 0.334,0.666 -0.334,-0.666 M 238,216 v 11 h 1 z"
     id="path512" />
  <path
     style="fill:#e1ab82;stroke:none"
     d="m 236,217 1,1 z"
     id="path514" />
  <path
     style="fill:#d1779a;stroke:none"
     d="m 34,218 -1,2 h 2 l -1,-2 m 149,1 v 4 h 1 l -1,-4 m -148,2 1,1 -1,-1 m 183,0 1,1 -1,-1 m -187,1 1,1 z"
     id="path516" />
  <path
     style="fill:#e1ab82;stroke:none"
     d="m 218,222 1,1 z"
     id="path518" />
  <path
     style="fill:#d1779a;stroke:none"
     d="m 30,223 1,1 -1,-1 m 6,0 1,1 z"
     id="path520" />
  <path
     style="fill:#e1ab82;stroke:none"
     d="m 183,223 v 4 h 1 l -1,-4 m -154,1 1,1 z"
     id="path522" />
  <path
     style="fill:#d1779a;stroke:none"
     d="m 217.333,224.667 0.334,0.666 z"
     id="path524" />
  <path
     style="fill:#e1ab82;stroke:none"
     d="m 237,224 1,1 z"
     id="path526" />
  <path
     style="fill:#d1779a;stroke:none"
     d="m 37,225 1,1 -1,-1 m -9,1 1,1 z"
     id="path528" />
  <path
     style="fill:#e1ab82;stroke:none"
     d="m 38,226 1,1 -1,-1 m 199,0 v 2 h 2 z"
     id="path530" />
  <path
     style="fill:#d1779a;stroke:none"
     d="m 38,227 1,1 -1,-1 m 145,0 v 5 h 1 l -1,-5 m 33,0 1,1 -1,-1 m -189,1 1,1 -1,-1 m 12,0 1,1 z"
     id="path532" />
  <path
     style="fill:#e1ab82;stroke:none"
     d="m 216,228 1,1 z"
     id="path534" />
  <path
     style="fill:#d1779a;stroke:none"
     d="m 237.333,228.667 0.334,0.666 -0.334,-0.666 M 26,230 l 1,1 -1,-1 m 14,0 1,1 z"
     id="path536" />
  <path
     style="fill:#e1ab82;stroke:none"
     d="m 215,230 1,1 -1,-1 m -174,1 1,1 z"
     id="path538" />
  <path
     style="fill:#d1779a;stroke:none"
     d="m 25,232 1,1 -1,-1 m 189,0 1,1 -1,-1 m -172,1 1,1 -1,-1 m 140,0 1,1 z"
     id="path540" />
  <path
     style="fill:#e1ab82;stroke:none"
     d="m 24,234 1,1 z"
     id="path542" />
  <path
     style="fill:#d1779a;stroke:none"
     d="m 43,234 1,1 -1,-1 m 137,0 1,1 -1,-1 m 33,0 1,1 -1,-1 m -189,1 1,1 -1,-1 m 20,0 1,1 -1,-1 m 134,0 1,1 -1,-1 m -2,1 1,1 -1,-1 m 36,0 1,1 -1,-1 m -167,1 1,1 z"
     id="path544" />
  <path
     style="fill:#e1ab82;stroke:none"
     d="m 174,237 1,1 z"
     id="path546" />
  <path
     style="fill:#d1779a;stroke:none"
     d="m 175,237 1,1 -1,-1 m -152,1 1,1 -1,-1 m 23,0 1,1 z"
     id="path548" />
  <path
     style="fill:#e1ab82;stroke:none"
     d="m 172,238 1,1 z"
     id="path550" />
  <path
     style="fill:#d1779a;stroke:none"
     d="m 173,238 1,1 z"
     id="path552" />
  <path
     style="fill:#e1ab82;stroke:none"
     d="m 211,238 1,1 z"
     id="path554" />
  <path
     style="fill:#d1779a;stroke:none"
     d="m 47,239 1,1 z"
     id="path556" />
  <path
     style="fill:#e1ab82;stroke:none"
     d="m 170,239 1,1 z"
     id="path558" />
  <path
     style="fill:#d1779a;stroke:none"
     d="m 171,239 1,1 -1,-1 m 39,0 1,1 -1,-1 m -162,1 1,1 -1,-1 m 121,0 1,1 -1,-1 m -2,1 1,1 -1,-1 m 42,0 1,1 -1,-1 m -186.6667,1.667 0.3334,0.666 z"
     id="path560" />
  <path
     style="fill:#e1ab82;stroke:none"
     d="m 51,242 1,1 z"
     id="path562" />
  <path
     style="fill:#d1779a;stroke:none"
     d="m 165,242 1,1 z"
     id="path564" />
  <path
     style="fill:#e1ab82;stroke:none"
     d="m 52,243 1,1 -1,-1 m 110,0 1,1 z"
     id="path566" />
  <path
     style="fill:#d1779a;stroke:none"
     d="m 163,243 1,1 -1,-1 m -110,1 1,1 -1,-1 m 107.667,0.333 0.666,0.334 -0.666,-0.334 M 207,244 l 1,1 -1,-1 m -153,1 1,1 -1,-1 m 104,0 1,1 -1,-1 m 48,0 1,1 z"
     id="path568" />
  <path
     style="fill:#e1ab82;stroke:none"
     d="m 56,246 1,1 z"
     id="path570" />
  <path
     style="fill:#d1779a;stroke:none"
     d="m 156,246 1,1 -1,-1 m -99,1 1,1 -1,-1 m 96.667,0.333 0.666,0.334 -0.666,-0.334 M 205,247 l 1,1 -1,-1 m -146,1 1,1 -1,-1 m 92,0 1,1 -1,-1 m 53,0 1,1 z"
     id="path572" />
  <path
     style="fill:#e1ab82;stroke:none"
     d="m 21,249 1,1 z"
     id="path574" />
  <path
     style="fill:#d1779a;stroke:none"
     d="m 61,249 1,1 -1,-1 m 87.667,0.333 0.666,0.334 -0.666,-0.334 M 21,250 v 8 h 1 l -1,-8 m 41,0 1,1 z"
     id="path576" />
  <path
     style="fill:#e1ab82;stroke:none"
     d="m 63,250 1,1 z"
     id="path578" />
  <path
     style="fill:#d1779a;stroke:none"
     d="m 145.667,250.333 0.666,0.334 -0.666,-0.334 m -81.0003,1 0.6666,0.334 -0.6666,-0.334 m 78.0003,0 0.666,0.334 -0.666,-0.334 M 176,251 l 1,1 z"
     id="path580" />
  <path
     style="fill:#e1ab82;stroke:none"
     d="m 202,251 1,1 z"
     id="path582" />
  <path
     style="fill:#d1779a;stroke:none"
     d="m 66.6667,252.333 0.6666,0.334 z"
     id="path584" />
  <path
     style="fill:#e1ab82;stroke:none"
     d="m 138,252 1,1 z"
     id="path586" />
  <path
     style="fill:#d1779a;stroke:none"
     d="m 139,252 1,1 -1,-1 m 62,0 1,1 -1,-1 m -132,1 1,1 z"
     id="path588" />
  <path
     style="fill:#e1ab82;stroke:none"
     d="m 135,253 1,1 z"
     id="path590" />
  <path
     style="fill:#d1779a;stroke:none"
     d="m 136,253 1,1 -1,-1 m 39,0 1,1 -1,-1 m 25,0 1,1 -1,-1 m -128.3333,1.333 0.6666,0.334 z"
     id="path592" />
  <path
     style="fill:#e1ab82;stroke:none"
     d="m 131,254 1,1 z"
     id="path594" />
  <path
     style="fill:#d1779a;stroke:none"
     d="m 132.667,254.333 0.666,0.334 -0.666,-0.334 M 199,254 l 1,1 -1,-1 m -124.3333,1.333 0.6666,0.334 z"
     id="path596" />
  <path
     style="fill:#e1ab82;stroke:none"
     d="m 127,255 1,1 z"
     id="path598" />
  <path
     style="fill:#d1779a;stroke:none"
     d="m 128.667,255.333 0.666,0.334 -0.666,-0.334 M 77,256 v 1 h 3 l -3,-1 m 46.667,0.333 0.666,0.334 -0.666,-0.334 m -41.0003,1 0.6666,0.334 z"
     id="path600" />
  <path
     style="fill:#e1ab82;stroke:none"
     d="m 84,257 1,1 -1,-1 m 33,0 1,1 z"
     id="path602" />
  <path
     style="fill:#d1779a;stroke:none"
     d="m 118,257 v 1 h 3 z"
     id="path604" />
  <path
     style="fill:#e1ab82;stroke:none"
     d="m 21,258 1,1 z"
     id="path606" />
  <path
     style="fill:#d1779a;stroke:none"
     d="m 88,258 v 1 h 4 z"
     id="path608" />
  <path
     style="fill:#e1ab82;stroke:none"
     d="m 92,258 1,1 -1,-1 m 17,0 1,1 z"
     id="path610" />
  <path
     style="fill:#d1779a;stroke:none"
     d="m 110,258 v 1 h 3 z"
     id="path612" />
  <path
     style="fill:#e1ab82;stroke:none"
     d="m 195,259 1,1 -1,-1 m -1,1 1,1 -1,-1 m -1,1 1,1 -1,-1 m -1,1 1,1 z"
     id="path614" />
  <path
     style="fill:#d1779a;stroke:none"
     d="m 22.3333,263.667 0.3334,0.666 z"
     id="path616" />
  <path
     style="fill:#e1ab82;stroke:none"
     d="m 191,263 1,1 -1,-1 m -1,1 1,1 z"
     id="path618" />
  <path
     style="fill:#d1779a;stroke:none"
     d="m 189,265 1,1 -1,-1 m -1,1 1,1 -1,-1 m -1,1 1,1 -1,-1 m -163.6667,1.667 0.3334,0.666 -0.3334,-0.666 M 186,268 l 1,1 -1,-1 m -1,1 1,1 -1,-1 m -1,1 1,1 z"
     id="path620" />
  <path
     style="fill:#e1ab82;stroke:none"
     d="m 183,294 c -0.125,-3.878 -0.502,-6.072 -4,-8 l -1,7 c -15.33,-4.619 -2.334,13.403 -2.697,19.941 -0.512,9.229 -7.567,-3.354 -8.303,-5.941 h -2 l -1,3 -8,-13 -1,8 c -8.947,-10.449 -12.526,1.97 -24,-2 0.525,4.75 5.171,10.06 -1,12 1.783,3.745 4.119,6.318 6.807,9.424 4.253,4.915 0.391,11.611 -5.804,7.829 C 119.577,325.278 121.534,310.012 106,310 c 1.603,8.99 8.861,15.318 11.208,24 1.197,4.431 -2.467,9.067 -0.472,13 3.026,5.963 10.579,10.374 15.264,15.004 12.272,12.126 24.383,24.332 37,36.086 10.37,9.659 20.881,24.063 34,29.91 5.907,-19.441 4.707,-42.833 6.09,-63 2.161,-31.536 5.91,-63.369 5.91,-95 -7.035,1.832 -15.838,8.389 -19.009,15.09 -1.261,2.664 -1.594,11.465 -4.449,12.565 -2.295,0.885 -6.245,-2.964 -8.542,-3.655 z"
     id="path622" />
  <path
     style="fill:#d1779a;stroke:none"
     d="m 183,271 1,1 -1,-1 m -158.6667,1.667 0.3334,0.666 -0.3334,-0.666 M 182,272 l 1,1 -1,-1 m -1,1 1,1 z"
     id="path624" />
  <path
     style="fill:#fdb5b9;stroke:none"
     d="m 24,274 1,1 z"
     id="path626" />
  <path
     style="fill:#e1ab82;stroke:none"
     d="m 180,274 1,1 z"
     id="path628" />
  <path
     style="fill:#d1779a;stroke:none"
     d="m 25,276 1,1 -1,-1 m 152,0 1,1 z"
     id="path630" />
  <path
     style="fill:#fdb5b9;stroke:none"
     d="m 25,277 1,1 z"
     id="path632" />
  <path
     style="fill:#d1779a;stroke:none"
     d="m 176,277 1,1 -1,-1 m -150,1 1,1 -1,-1 m 148,0 1,1 z"
     id="path634" />
  <path
     style="fill:#fdb5b9;stroke:none"
     d="m 343,350 c 9.24,-10e-4 19.128,-0.478 28,-3.205 24.503,-7.533 35.642,-38.959 14.96,-57.494 C 372.682,277.401 355.639,278 339,278 c -10.226,0 -23.854,-2.503 -29.91,8.004 -6.489,11.255 -2.09,34.239 -2.09,46.996 0,11.34 -4.003,32.442 3.652,41.786 6.763,8.257 23.893,6.973 29.505,-1.801 C 344.351,366.426 343,357.399 343,350 m 77,-71.467 c -11.071,2.696 -11,14.295 -11,23.467 0,20.145 -2.436,42.062 0.428,62 1.664,11.585 9.319,18.672 21.571,15.442 C 442.471,376.418 442,363.444 442,354 v -46 c 0,-6.675 1.551,-15.687 -0.894,-21.996 -3.105,-8.018 -13.725,-9.268 -21.106,-7.471 z"
     id="path636" />
  <path
     style="fill:#e1ab82;stroke:none"
     d="m 26,279 1,1 z"
     id="path638" />
  <path
     style="fill:#d1779a;stroke:none"
     d="m 173,279 1,1 -1,-1 m -2,1 1,1 -1,-1 m -144,1 1,1 -1,-1 m 143,0 1,1 -1,-1 m -2,1 1,1 z"
     id="path640" />
  <path
     style="fill:#e1ab82;stroke:none"
     d="m 28,283 1,1 z"
     id="path642" />
  <path
     style="fill:#d1779a;stroke:none"
     d="m 166,283 1,1 z"
     id="path644" />
  <path
     style="fill:#e1ab82;stroke:none"
     d="m 167,283 1,1 z"
     id="path646" />
  <path
     style="fill:#fdb5b9;stroke:none"
     d="m 214,283 v 6 h 1 z"
     id="path648" />
  <path
     style="fill:#d1779a;stroke:none"
     d="m 165,284 1,1 z"
     id="path650" />
  <path
     style="fill:#fdb5b9;stroke:none"
     d="m 29,285 1,1 z"
     id="path652" />
  <path
     style="fill:#d1779a;stroke:none"
     d="m 163,285 1,1 -1,-1 m -133,1 1,1 -1,-1 m 131,0 1,1 -1,-1 m -130,1 1,1 -1,-1 m 128,0 1,1 -1,-1 m -2,1 1,1 z"
     id="path654" />
  <path
     style="fill:#fdb5b9;stroke:none"
     d="m 32,289 1,1 z"
     id="path656" />
  <path
     style="fill:#d1779a;stroke:none"
     d="m 123,289 1,1 -1,-1 m 31,0 1,1 z"
     id="path658" />
  <path
     style="fill:#e1ab82;stroke:none"
     d="m 155,289 1,1 z"
     id="path660" />
  <path
     style="fill:#fdb5b9;stroke:none"
     d="m 33,290 1,1 z"
     id="path662" />
  <path
     style="fill:#d1779a;stroke:none"
     d="m 152,290 1,1 z"
     id="path664" />
  <path
     style="fill:#fdb5b9;stroke:none"
     d="m 34,291 1,1 z"
     id="path666" />
  <path
     style="fill:#d1779a;stroke:none"
     d="m 149.667,291.333 0.666,0.334 z"
     id="path668" />
  <path
     style="fill:#fdb5b9;stroke:none"
     d="m 35,292 1,1 z"
     id="path670" />
  <path
     style="fill:#d1779a;stroke:none"
     d="m 146.667,292.333 0.666,0.334 z"
     id="path672" />
  <path
     style="fill:#fdb5b9;stroke:none"
     d="m 36,293 1,1 z"
     id="path674" />
  <path
     style="fill:#d1779a;stroke:none"
     d="m 143,293 1,1 z"
     id="path676" />
  <path
     style="fill:#e1ab82;stroke:none"
     d="m 144,293 1,1 z"
     id="path678" />
  <path
     style="fill:#d1779a;stroke:none"
     d="m 38,294 1,1 -1,-1 m 101.667,0.333 0.666,0.334 z"
     id="path680" />
  <path
     style="fill:#e1ab82;stroke:none"
     d="m 39,295 1,1 z"
     id="path682" />
  <path
     style="fill:#d1779a;stroke:none"
     d="m 136,295 1,1 z"
     id="path684" />
  <path
     style="fill:#e1ab82;stroke:none"
     d="m 137,295 1,1 z"
     id="path686" />
  <path
     style="fill:#d1779a;stroke:none"
     d="m 41,296 1,1 -1,-1 m 91.667,0.333 0.666,0.334 z"
     id="path688" />
  <path
     style="fill:#e1ab82;stroke:none"
     d="m 42,297 1,1 z"
     id="path690" />
  <path
     style="fill:#d1779a;stroke:none"
     d="m 130,297 1,1 z"
     id="path692" />
  <path
     style="fill:#e1ab82;stroke:none"
     d="m 131,297 1,1 z"
     id="path694" />
  <path
     style="fill:#fff6f4;stroke:none"
     d="m 343,297 1,33 c 4.944,-0.932 10.064,-1.403 13.772,-5.214 C 370.518,311.683 357.222,297.118 343,297 Z"
     id="path696" />
  <path
     style="fill:#d1779a;stroke:none"
     d="m 44,298 1,1 -1,-1 m 84,0 1,1 z"
     id="path698" />
  <path
     style="fill:#fdb5b9;stroke:none"
     d="m 45,299 1,1 z"
     id="path700" />
  <path
     style="fill:#d1779a;stroke:none"
     d="m 46,299 1,1 -1,-1 m 81,0 1,1 z"
     id="path702" />
  <path
     style="fill:#fdb5b9;stroke:none"
     d="m 47,300 1,1 z"
     id="path704" />
  <path
     style="fill:#d1779a;stroke:none"
     d="m 48,300 1,1 -1,-1 m 78,0 1,1 z"
     id="path706" />
  <path
     style="fill:#fdb5b9;stroke:none"
     d="m 213,300 v 6 h 1 l -1,-6 m -164,1 1,1 z"
     id="path708" />
  <path
     style="fill:#d1779a;stroke:none"
     d="m 50,301 1,1 z"
     id="path710" />
  <path
     style="fill:#fdb5b9;stroke:none"
     d="m 51,302 1,1 z"
     id="path712" />
  <path
     style="fill:#d1779a;stroke:none"
     d="m 52,302 1,1 z"
     id="path714" />
  <path
     style="fill:#e1ab82;stroke:none"
     d="m 125,302 1,1 -1,-1 m -71,1 1,1 z"
     id="path716" />
  <path
     style="fill:#fdb5b9;stroke:none"
     d="m 56,304 1,1 z"
     id="path718" />
  <path
     style="fill:#d1779a;stroke:none"
     d="m 57,304 1,1 -1,-1 m 67,0 1,1 z"
     id="path720" />
  <path
     style="fill:#fdb5b9;stroke:none"
     d="m 59,305 1,1 z"
     id="path722" />
  <path
     style="fill:#e1ab82;stroke:none"
     d="m 60,305 1,1 z"
     id="path724" />
  <path
     style="fill:#d1779a;stroke:none"
     d="m 61,305 1,1 z"
     id="path726" />
  <path
     style="fill:#fdb5b9;stroke:none"
     d="m 63,306 1,1 z"
     id="path728" />
  <path
     style="fill:#d1779a;stroke:none"
     d="m 64,306 1,1 -1,-1 m 1,1 1,1 -1,-1 m 58.333,0.667 0.334,0.666 z"
     id="path730" />
  <path
     style="fill:#fdb5b9;stroke:none"
     d="m 66,308 1,1 z"
     id="path732" />
  <path
     style="fill:#e1ab82;stroke:none"
     d="m 79,308 24,25 C 98.356,319.362 92.8629,311.934 79,308 Z"
     id="path734" />
  <path
     style="fill:#d1779a;stroke:none"
     d="m 80.6667,308.333 0.6666,0.334 z"
     id="path736" />
  <path
     style="fill:#fdb5b9;stroke:none"
     d="m 505,316 c -4.282,-3.264 -8.733,-5.89 -14,-7.239 -37.959,-9.727 -49.416,54.136 -20,69.565 12.164,6.381 21.025,-1.045 32.715,-1.851 9.805,-0.677 25.339,10.839 30.481,-5.476 C 537.676,359.958 535,344.532 535,333 c 0,-5.123 0.811,-11.13 -1.148,-15.985 C 529.065,305.152 511.283,307.346 505,316 m 76,-7.561 c -27.104,4.233 -43.405,33.833 -26.211,57.557 10.705,14.771 34.772,18.905 51.211,12.536 6.245,-2.419 25.242,-15.119 18.103,-23.875 -3.837,-4.705 -10.84,0.26 -15.103,1.569 -10.303,3.163 -24.043,2.886 -28.146,-9.226 -2.136,-6.306 -0.897,-24.006 8.09,-24.963 6.092,-0.648 1.422,15.231 2.374,18.958 2.236,8.759 14.177,7.415 20.682,5.216 13.182,-4.456 16.868,-22.857 5.957,-31.679 -9.389,-7.591 -25.548,-7.875 -36.957,-6.093 M 671,348 c 10.151,0 22.485,1.863 32,-2.363 11.675,-5.186 13.218,-20.557 4.787,-29.532 -6.851,-7.293 -17.423,-8.104 -26.787,-8.105 -26.884,-0.002 -49.997,19.212 -42.243,48 5.943,22.064 34.626,29.213 54.243,22.971 7.812,-2.485 23.708,-11.703 21.638,-21.927 -1.562,-7.715 -10.222,-3.113 -14.638,-1.589 -10.649,3.676 -23.52,4.263 -29,-7.455 z"
     id="path738" />
  <path
     style="fill:#d1779a;stroke:none"
     d="m 84,309 1,1 -1,-1 m 24,0 v 1 h 6 z"
     id="path740" />
  <path
     style="fill:#e1ab82;stroke:none"
     d="m 123,309 1,1 z"
     id="path742" />
  <path
     style="fill:#fdb5b9;stroke:none"
     d="m 737,309.653 c -10.846,3.406 -10,15.211 -10,24.347 0,17.662 -5.657,54.774 23.996,45.007 17.323,-5.706 1.97,-32.32 9.032,-43.778 3.165,-5.135 8.176,-0.879 11.972,0.686 5.469,2.255 11.815,0.973 15.297,-3.959 9.328,-13.214 -4.486,-24.371 -17.297,-22.771 -4.054,0.506 -8.7,4.644 -12.576,4.132 C 750.022,312.34 745.448,307 737,309.653 Z"
     id="path744" />
  <path
     style="fill:#d1779a;stroke:none"
     d="m 87,310 1,1 -1,-1 m 3,1 1,1 -1,-1 m 15,0 1,1 -1,-1 m 11,1 1,1 z"
     id="path746" />
  <path
     style="fill:#e1ab82;stroke:none"
     d="m 71,313 1,1 z"
     id="path748" />
  <path
     style="fill:#d1779a;stroke:none"
     d="m 106,313 1,1 -1,-1 m 11,0 1,1 z"
     id="path750" />
  <path
     style="fill:#e1ab82;stroke:none"
     d="m 123,313 1,1 z"
     id="path752" />
  <path
     style="fill:#d1779a;stroke:none"
     d="m 72,314 1,1 -1,-1 m 51,0 1,1 -1,-1 m -38,1 1,1 -1,-1 m 9,0 1,1 -1,-1 m 13,0 1,1 -1,-1 m 11,0 1,1 z"
     id="path754" />
  <path
     style="fill:#fdb5b9;stroke:none"
     d="m 73,316 1,1 z"
     id="path756" />
  <path
     style="fill:#d1779a;stroke:none"
     d="m 86,316 1,1 z"
     id="path758" />
  <path
     style="fill:#fdb5b9;stroke:none"
     d="m 212,316 v 6 h 1 z"
     id="path760" />
  <path
     style="fill:#d1779a;stroke:none"
     d="m 74,317 1,1 -1,-1 m 13.3333,0.667 0.3334,0.666 -0.3334,-0.666 M 95,317 l 1,1 -1,-1 m 13,0 1,1 -1,-1 m 16,0 1,1 z"
     id="path762" />
  <path
     style="fill:#e1ab82;stroke:none"
     d="m 74,318 1,1 z"
     id="path764" />
  <path
     style="fill:#d1779a;stroke:none"
     d="m 120,318 1,1 -1,-1 m -24,1 1,1 -1,-1 m 13,0 1,1 -1,-1 m 16,0 1,1 z"
     id="path766" />
  <path
     style="fill:#e1ab82;stroke:none"
     d="m 75,320 1,1 z"
     id="path768" />
  <path
     style="fill:#fff6f4;stroke:none"
     d="m 89,320 1,1 z"
     id="path770" />
  <path
     style="fill:#d1779a;stroke:none"
     d="m 97,320 1,1 -1,-1 m 24,0 1,1 z"
     id="path772" />
  <path
     style="fill:#fdb5b9;stroke:none"
     d="m 89,321 1,1 z"
     id="path774" />
  <path
     style="fill:#d1779a;stroke:none"
     d="m 126,321 1,1 z"
     id="path776" />
  <path
     style="fill:#fff6f4;stroke:none"
     d="m 670,338 c 3.407,0 8.711,0.955 11.682,-1.028 3.527,-2.353 3.536,-12.477 -0.116,-14.774 C 673.565,317.165 670.205,333.296 670,338 Z"
     id="path778" />
  <path
     style="fill:#d1779a;stroke:none"
     d="m 76,322 1,1 z"
     id="path780" />
  <path
     style="fill:#e1ab82;stroke:none"
     d="m 89,322 1,1 z"
     id="path782" />
  <path
     style="fill:#d1779a;stroke:none"
     d="m 98,322 1,1 -1,-1 m 13,0 1,1 -1,-1 m 11,0 1,1 z"
     id="path784" />
  <path
     style="fill:#fdb5b9;stroke:none"
     d="m 76,323 1,1 z"
     id="path786" />
  <path
     style="fill:#d1779a;stroke:none"
     d="m 89,323 v 3 h 1 l -1,-3 m 10,1 1,1 -1,-1 m 29,0 1,1 z"
     id="path788" />
  <path
     style="fill:#fdb5b9;stroke:none"
     d="m 77,325 1,1 z"
     id="path790" />
  <path
     style="fill:#d1779a;stroke:none"
     d="m 113,325 1,1 -1,-1 m 11,0 1,1 z"
     id="path792" />
  <path
     style="fill:#e1ab82;stroke:none"
     d="m 129,325 1,1 z"
     id="path794" />
  <path
     style="fill:#d1779a;stroke:none"
     d="m 78,326 1,1 -1,-1 m 22,0 1,1 -1,-1 m -21,1 1,1 -1,-1 m 8,0 1,1 -1,-1 m 27,0 1,1 -1,-1 m 11,0 1,1 z"
     id="path796" />
  <path
     style="fill:#fff6f4;stroke:none"
     d="m 493.34,328.029 c -7.152,4.372 -6.327,20.21 -4.115,26.97 1.463,4.473 5.572,8.926 10.627,5.972 5.526,-3.228 4.304,-23.392 2.714,-28.952 -1.12,-3.92 -5.485,-6.278 -9.226,-3.99 z"
     id="path798" />
  <path
     style="fill:#e1ab82;stroke:none"
     d="m 80,328 1,1 -1,-1 m 6,0 1,1 z"
     id="path800" />
  <path
     style="fill:#d1779a;stroke:none"
     d="m 101,328 1,1 -1,-1 m 25,0 1,1 z"
     id="path802" />
  <path
     style="fill:#fdb5b9;stroke:none"
     d="m 83,329 1,1 z"
     id="path804" />
  <path
     style="fill:#d1779a;stroke:none"
     d="m 115,329 1,1 -1,-1 m 12,0 1,1 -1,-1 m 1,1 1,1 -1,-1 m -26,1 1,1 -1,-1 m 14.333,0.667 0.334,0.666 -0.334,-0.666 M 129,331 l 1,1 -1,-1 m 6,0 1,1 -1,-1 m -5,1 1,1 -1,-1 m 7.333,0.667 0.334,0.666 z"
     id="path806" />
  <path
     style="fill:#fdb5b9;stroke:none"
     d="m 211,332 v 5 h 1 z"
     id="path808" />
  <path
     style="fill:#d1779a;stroke:none"
     d="m 132,333 1,1 -1,-1 m -29,1 1,1 -1,-1 m 14,0 v 3 h 1 z"
     id="path810" />
  <path
     style="fill:#fdb5b9;stroke:none"
     d="m 103,335 1,1 z"
     id="path812" />
  <path
     style="fill:#d1779a;stroke:none"
     d="m 104,339 1,1 z"
     id="path814" />
  <path
     style="fill:#e1ab82;stroke:none"
     d="m 104,340 1,1 z"
     id="path816" />
  <path
     style="fill:#d1779a;stroke:none"
     d="m 117,340 1,1 -1,-1 m -12,2 1,1 -1,-1 m 2,2 1,1 z"
     id="path818" />
  <path
     style="fill:#fdb5b9;stroke:none"
     d="m 108,345 1,1 z"
     id="path820" />
  <path
     style="fill:#d1779a;stroke:none"
     d="m 109,345 v 1 h 4 z"
     id="path822" />
  <path
     style="fill:#fdb5b9;stroke:none"
     d="m 113,345 1,1 -1,-1 m 97,2 v 5 h 1 l -1,-5 m -84,9 1,1 -1,-1 m 1,1 1,1 -1,-1 m 1,1 1,1 -1,-1 m 1,1 1,1 -1,-1 m 1,1 1,1 -1,-1 m 1,1 1,1 -1,-1 m 78,0 v 5 h 1 l -1,-5 m -77,1 1,1 -1,-1 m 1,1 1,1 -1,-1 m 1,1 1,1 -1,-1 m 1,1 1,1 -1,-1 m 1,1 1,1 -1,-1 m 1,1 1,1 -1,-1 m 1,1 1,1 -1,-1 m 1,1 1,1 -1,-1 m 1,1 1,1 -1,-1 m 1,1 1,1 -1,-1 m 1,1 1,1 -1,-1 m 1,1 1,1 -1,-1 m 1,1 1,1 -1,-1 m 1,1 1,1 -1,-1 m 63,0 v 5 h 1 l -1,-5 m -62,1 1,1 -1,-1 m 1,1 1,1 -1,-1 m 1,1 1,1 -1,-1 m 1,1 1,1 -1,-1 m 58,9 v 5 h 1 l -1,-5 m -41,7 1,1 -1,-1 m 1,1 1,1 -1,-1 m 1,1 1,1 -1,-1 m 1,1 1,1 -1,-1 m 1,1 1,1 -1,-1 m 1,1 1,1 -1,-1 m 35,0 v 4 h 1 l -1,-4 m -34,1 1,1 -1,-1 m 1,1 1,1 -1,-1 m 1,1 1,1 -1,-1 m 1,1 1,1 -1,-1 m 1,1 1,1 -1,-1 m 29,6 v 4 h 1 l -1,-4 m -19,3 1,1 -1,-1 m 1,1 1,1 -1,-1 m 1,1 1,1 -1,-1 m 1,1 1,1 -1,-1 m 1,1 1,1 -1,-1 m 1,1 1,1 -1,-1 m 13,1 v 3 h 1 l -1,-3 m -7,4 1,1 -1,-1 m 1,1 1,1 -1,-1 m 1,1 1,1 -1,-1 m 4,1 1,1 -1,-1 m -1,1 1,1 z"
     id="path824" />
</svg>
