<?xml version="1.0" standalone="no"?>
<!DOCTYPE svg PUBLIC "-//W3C//DTD SVG 20010904//EN"
 "http://www.w3.org/TR/2001/REC-SVG-20010904/DTD/svg10.dtd">
<svg version="1.0" xmlns="http://www.w3.org/2000/svg"
 width="100.000000pt" height="100.000000pt" viewBox="0 0 100.000000 100.000000"
 preserveAspectRatio="xMidYMid meet">

<g transform="translate(0.000000,100.000000) scale(0.100000,-0.100000)"
fill="#000000" stroke="none">
<path d="M415 850 c-4 -6 -4 -27 0 -48 4 -28 -3 -63 -30 -141 l-35 -105 0
-207 c0 -175 2 -210 16 -223 23 -23 265 -23 288 0 14 13 16 48 16 223 l0 207
-35 103 c-23 70 -34 119 -32 150 l2 46 -92 3 c-57 2 -94 -1 -98 -8z m175 -30
c0 -18 -7 -20 -80 -20 -73 0 -80 2 -80 20 0 18 7 20 80 20 73 0 80 -2 80 -20z
m-1 -81 c7 -23 15 -47 18 -54 3 -10 -9 -15 -49 -18 l-53 -3 56 -2 56 -2 17
-57 c14 -48 17 -92 14 -263 l-3 -205 -135 0 -135 0 -3 205 c-3 171 0 215 14
263 12 38 22 57 33 57 12 0 13 3 4 8 -10 6 -9 20 4 60 l17 52 66 0 67 0 12
-41z"/>
<path d="M458 663 c6 -2 18 -2 25 0 6 3 1 5 -13 5 -14 0 -19 -2 -12 -5z"/>
<path d="M604 360 c0 -74 1 -105 3 -67 2 37 2 97 0 135 -2 37 -3 6 -3 -68z"/>
<path d="M602 185 c0 -16 2 -22 5 -12 2 9 2 23 0 30 -3 6 -5 -1 -5 -18z"/>
</g>
</svg>
