<?xml version="1.0" standalone="no"?>
<!DOCTYPE svg PUBLIC "-//W3C//DTD SVG 20010904//EN"
 "http://www.w3.org/TR/2001/REC-SVG-20010904/DTD/svg10.dtd">
<svg version="1.0" xmlns="http://www.w3.org/2000/svg"
 width="64.000000pt" height="64.000000pt" viewBox="0 0 64.000000 64.000000"
 preserveAspectRatio="xMidYMid meet">

<g transform="translate(0.000000,64.000000) scale(0.100000,-0.100000)"
fill="#000000" stroke="none">
<path d="M89 589 c-43 -46 -73 -154 -66 -236 17 -219 243 -379 450 -319 137
40 178 97 121 166 -43 51 -74 62 -136 49 -31 -7 -64 -22 -80 -36 l-27 -25 -34
21 c-38 23 -98 86 -117 121 -10 18 -8 26 10 45 12 12 28 48 36 79 17 65 7 95
-46 140 -42 35 -75 33 -111 -5z m99 -43 c29 -33 30 -37 20 -78 -6 -24 -24 -58
-40 -76 l-28 -33 21 -41 c27 -52 105 -130 157 -157 l41 -21 33 29 c18 16 53
34 77 41 43 11 45 11 80 -24 43 -44 38 -58 -35 -95 -68 -35 -186 -36 -260 -3
-64 29 -136 102 -166 167 -40 89 -30 219 24 298 25 35 40 34 76 -7z"/>
<path d="M346 611 c-12 -18 1 -28 44 -34 93 -12 171 -91 188 -188 5 -29 13
-44 22 -44 21 0 17 82 -5 126 -24 47 -73 97 -117 120 -47 24 -123 36 -132 20z"/>
<path d="M325 510 c-10 -16 4 -30 28 -30 52 0 113 -60 126 -122 4 -17 12 -33
19 -36 34 -11 21 81 -20 133 -36 46 -136 82 -153 55z"/>
<path d="M307 413 c-14 -13 -6 -24 24 -35 21 -7 36 -22 45 -44 15 -36 31 -44
40 -19 19 48 -75 132 -109 98z"/>
</g>
</svg>
