<?xml version="1.0" standalone="no"?>
<!DOCTYPE svg PUBLIC "-//W3C//DTD SVG 20010904//EN"
 "http://www.w3.org/TR/2001/REC-SVG-20010904/DTD/svg10.dtd">
<svg version="1.0" xmlns="http://www.w3.org/2000/svg"
 width="64.000000pt" height="64.000000pt" viewBox="0 0 64.000000 64.000000"
 preserveAspectRatio="xMidYMid meet">

<g transform="translate(0.000000,64.000000) scale(0.100000,-0.100000)"
fill="#000000" stroke="none">
<path d="M146 608 c-23 -32 -23 -500 -1 -538 8 -14 18 -33 21 -42 8 -23 64
-25 64 -3 0 12 17 15 90 15 73 0 90 -3 90 -15 0 -22 56 -20 64 2 3 10 13 29
21 43 22 38 22 506 -1 538 -15 21 -21 22 -174 22 -153 0 -159 -1 -174 -22z
m332 0 c7 -7 12 -40 12 -80 l0 -68 -130 0 -130 0 0 24 c0 27 -20 48 -37 38 -6
-4 -15 -20 -18 -35 -13 -49 -25 -28 -25 41 0 40 5 73 12 80 17 17 299 17 316
0z m-268 -159 c0 -37 -4 -58 -10 -54 -5 3 -10 31 -10 61 0 30 5 54 10 54 6 0
10 -27 10 -61z m-33 -40 c15 -39 47 -37 51 4 l3 27 130 0 129 0 0 -185 c0
-159 -2 -186 -16 -192 -9 -3 -21 3 -30 16 -14 19 -24 21 -124 21 -100 0 -110
-2 -124 -21 -9 -13 -21 -19 -30 -16 -14 6 -16 33 -16 192 0 102 4 185 8 185 4
0 13 -14 19 -31z m93 -339 c0 -11 -7 -20 -15 -20 -8 0 -15 9 -15 20 0 11 7 20
15 20 8 0 15 -9 15 -20z m40 0 c0 -21 -15 -27 -25 -10 -7 12 2 30 16 30 5 0 9
-9 9 -20z m45 0 c0 -7 -6 -15 -12 -17 -8 -3 -13 4 -13 17 0 13 5 20 13 18 6
-3 12 -11 12 -18z m45 0 c0 -11 -7 -20 -15 -20 -8 0 -15 9 -15 20 0 11 7 20
15 20 8 0 15 -9 15 -20z m-170 2 c0 -13 -12 -22 -22 -16 -10 6 -1 24 13 24 5
0 9 -4 9 -8z m208 -11 c3 -8 -1 -12 -9 -9 -7 2 -15 10 -17 17 -3 8 1 12 9 9 7
-2 15 -10 17 -17z m-228 -31 c0 -5 -7 -10 -15 -10 -8 0 -15 5 -15 10 0 6 7 10
15 10 8 0 15 -4 15 -10z m250 0 c0 -5 -7 -10 -15 -10 -8 0 -15 5 -15 10 0 6 7
10 15 10 8 0 15 -4 15 -10z"/>
<path d="M370 500 c0 -17 7 -20 50 -20 43 0 50 3 50 20 0 17 -7 20 -50 20 -43
0 -50 -3 -50 -20z m85 0 c-3 -5 -22 -10 -41 -10 -19 0 -34 5 -34 10 0 6 18 10
41 10 24 0 38 -4 34 -10z"/>
<path d="M160 290 c0 -27 5 -50 10 -50 6 0 10 23 10 50 0 28 -4 50 -10 50 -5
0 -10 -22 -10 -50z"/>
</g>
</svg>
