<?xml version="1.0" standalone="no"?>
<!DOCTYPE svg PUBLIC "-//W3C//DTD SVG 20010904//EN"
 "http://www.w3.org/TR/2001/REC-SVG-20010904/DTD/svg10.dtd">
<svg version="1.0" xmlns="http://www.w3.org/2000/svg"
 width="64.000000pt" height="64.000000pt" viewBox="0 0 64.000000 64.000000"
 preserveAspectRatio="xMidYMid meet">

<g transform="translate(0.000000,64.000000) scale(0.100000,-0.100000)"
fill="#000000" stroke="none">
<path d="M3 544 c-3 -9 -1 -25 5 -35 15 -24 16 -281 1 -296 -5 -5 -9 -32 -7
-59 3 -48 4 -49 40 -54 24 -3 44 -14 58 -32 30 -39 72 -38 102 2 l22 30 106 0
106 0 22 -30 c30 -40 72 -41 102 -3 12 16 34 30 48 33 24 5 27 10 30 54 2 27
-2 54 -7 59 -6 6 -11 23 -11 37 0 37 -89 164 -118 168 -12 2 -22 10 -22 18 0
8 -4 14 -10 14 -5 0 -10 -7 -10 -15 0 -8 -9 -15 -20 -15 -16 0 -20 7 -20 35 0
19 5 44 12 54 6 10 8 26 5 35 -6 14 -31 16 -217 16 -186 0 -211 -2 -217 -16z
m417 -14 c0 -6 -73 -10 -200 -10 -127 0 -200 4 -200 10 0 6 73 10 200 10 127
0 200 -4 200 -10z m-20 -120 l0 -90 -180 0 -180 0 0 40 0 40 130 0 c80 0 130
4 130 10 0 6 -50 10 -130 10 l-130 0 0 40 0 40 180 0 180 0 0 -90z m158 -78
c23 -35 42 -75 42 -88 0 -24 -2 -24 -90 -24 l-90 0 0 91 0 90 48 -3 c46 -3 48
-5 90 -66z m-158 -72 l0 -40 -180 0 -180 0 0 40 0 40 180 0 180 0 0 -40z m220
-100 c0 -32 -4 -40 -18 -40 -10 0 -28 14 -40 30 -31 41 -73 41 -104 0 l-22
-30 -106 0 -106 0 -22 30 c-16 22 -31 30 -52 30 -21 0 -36 -8 -52 -30 -15 -21
-30 -30 -50 -30 -26 0 -28 3 -28 40 l0 40 300 0 300 0 0 -40z m-436 -16 c31
-30 9 -84 -34 -84 -43 0 -65 54 -34 84 8 9 24 16 34 16 10 0 26 -7 34 -16z
m360 0 c31 -30 9 -84 -34 -84 -24 0 -50 26 -50 50 0 24 26 50 50 50 10 0 26
-7 34 -16z"/>
<path d="M320 410 c0 -5 14 -10 30 -10 17 0 30 5 30 10 0 6 -13 10 -30 10 -16
0 -30 -4 -30 -10z"/>
<path d="M60 360 c0 -11 5 -20 10 -20 6 0 10 9 10 20 0 11 -4 20 -10 20 -5 0
-10 -9 -10 -20z"/>
<path d="M110 360 c0 -11 5 -20 10 -20 6 0 10 9 10 20 0 11 -4 20 -10 20 -5 0
-10 -9 -10 -20z"/>
<path d="M160 360 c0 -11 5 -20 10 -20 6 0 10 9 10 20 0 11 -4 20 -10 20 -5 0
-10 -9 -10 -20z"/>
<path d="M210 360 c0 -11 5 -20 10 -20 6 0 10 9 10 20 0 11 -4 20 -10 20 -5 0
-10 -9 -10 -20z"/>
<path d="M260 360 c0 -11 5 -20 10 -20 6 0 10 9 10 20 0 11 -4 20 -10 20 -5 0
-10 -9 -10 -20z"/>
<path d="M310 360 c0 -11 5 -20 10 -20 6 0 10 9 10 20 0 11 -4 20 -10 20 -5 0
-10 -9 -10 -20z"/>
<path d="M360 360 c0 -11 5 -20 10 -20 6 0 10 9 10 20 0 11 -4 20 -10 20 -5 0
-10 -9 -10 -20z"/>
<path d="M444 367 c-3 -8 -4 -30 -2 -49 3 -33 4 -33 52 -33 27 0 51 5 53 11 2
6 -7 26 -20 45 -25 37 -73 52 -83 26z m69 -37 l18 -30 -35 0 c-33 0 -36 2 -36
30 0 22 5 30 18 30 10 0 26 -13 35 -30z"/>
<path d="M440 250 c0 -5 9 -10 20 -10 11 0 20 5 20 10 0 6 -9 10 -20 10 -11 0
-20 -4 -20 -10z"/>
<path d="M134 119 c-10 -17 13 -36 27 -22 12 12 4 33 -11 33 -5 0 -12 -5 -16
-11z"/>
<path d="M494 119 c-10 -17 13 -36 27 -22 12 12 4 33 -11 33 -5 0 -12 -5 -16
-11z"/>
</g>
</svg>
