<?xml version="1.0" standalone="no"?>
<!DOCTYPE svg PUBLIC "-//W3C//DTD SVG 20010904//EN"
 "http://www.w3.org/TR/2001/REC-SVG-20010904/DTD/svg10.dtd">
<svg version="1.0" xmlns="http://www.w3.org/2000/svg"
 width="64.000000pt" height="64.000000pt" viewBox="0 0 64.000000 64.000000"
 preserveAspectRatio="xMidYMid meet">

<g transform="translate(0.000000,64.000000) scale(0.100000,-0.100000)"
fill="#000000" stroke="none">
<path d="M220 583 c-61 -22 -142 -104 -163 -167 -63 -184 72 -376 263 -376
151 0 280 129 280 280 0 75 -27 139 -84 196 -80 80 -189 104 -296 67z m200
-44 c60 -27 88 -54 116 -114 42 -88 25 -204 -39 -274 -36 -39 -115 -71 -177
-71 -62 0 -141 32 -177 71 -62 68 -80 185 -42 269 27 60 54 88 114 116 64 30
143 31 205 3z"/>
<path d="M241 536 c-72 -26 -132 -97 -147 -175 -6 -30 -5 -31 30 -31 20 0 36
-4 36 -10 0 -5 -16 -10 -35 -10 -39 0 -40 -5 -23 -61 22 -75 96 -139 177 -155
30 -6 31 -5 31 30 0 20 5 36 10 36 6 0 10 -16 10 -36 0 -35 1 -36 31 -30 81
16 155 80 177 155 17 56 16 61 -23 61 -19 0 -35 5 -35 10 0 6 16 10 36 10 35
0 36 1 30 31 -16 81 -80 155 -155 177 -56 17 -61 16 -61 -23 0 -19 -4 -35 -10
-35 -5 0 -10 16 -10 35 0 39 -10 42 -69 21z m-51 -81 c13 -14 21 -25 18 -25
-2 0 -15 11 -28 25 -13 14 -21 25 -18 25 2 0 15 -11 28 -25z m290 22 c0 -2
-12 -14 -27 -28 l-28 -24 24 28 c23 25 31 32 31 24z m-150 -103 c0 -41 -37
-151 -47 -140 -2 2 3 21 11 41 9 21 16 62 16 91 0 30 5 54 10 54 6 0 10 -21
10 -46z m-120 -167 c0 -2 -12 -14 -27 -28 l-28 -24 24 28 c23 25 31 32 31 24z
m250 -22 c13 -14 21 -25 18 -25 -2 0 -15 11 -28 25 -13 14 -21 25 -18 25 2 0
15 -11 28 -25z"/>
</g>
</svg>
